<svg xmlns="http://www.w3.org/2000/svg" width="24" height="24" fill="none" viewBox="0 0 24 24"><g clip-path="url(#a)"><path fill="#9B9B9B" fill-rule="evenodd" d="M4 0c.265 0 .52.087.707.241A.757.757 0 0 1 5 .823v22.354a.698.698 0 0 1-.076.315c-.05.1-.124.19-.217.267a1.037 1.037 0 0 1-.324.178 1.19 1.19 0 0 1-.766 0 1.037 1.037 0 0 1-.324-.178.833.833 0 0 1-.217-.267.698.698 0 0 1-.076-.315V.823c0-.108.026-.215.076-.315S3.2.318 3.293.24c.093-.076.203-.137.324-.178A1.19 1.19 0 0 1 4 0Z" clip-rule="evenodd"/><path fill="#FA4141" d="M5.675 2.796a6.97 6.97 0 0 0-2.288-.441c-.304-.002-.514.254-.514.557v10.763a.459.459 0 0 0 .454.452c2.043.043 2.512.802 4.847.802 2.5 0 5.302-1.683 7.72-1.683 1.638 0 3.419.605 4.426 1.058.212.095.463-.057.463-.29V3.126a.653.653 0 0 0-.375-.591c-4.498-2.063-6.706-.683-9.46.094-1.757.497-3.322.731-5.273.166Z"/></g><defs><clipPath id="a"><path fill="#fff" d="M0 0h24v24H0z"/></clipPath></defs></svg>