<svg xmlns="http://www.w3.org/2000/svg" width="24" height="24" fill="none" viewBox="0 0 24 24"><path stroke="#464B53" stroke-width="1.5" d="M8 6.639V20.5"/><path stroke="#464B53" stroke-linecap="round" stroke-width="1.5" d="M20 11.5c0-1.042 0-5.903-.283-6.296-.283-.393-.778-.558-1.768-.888l-1.165-.388c-1.367-.456-2.051-.684-2.739-.591-.688.091-1.287.491-2.487 1.291l-1.382.922c-.936.623-1.404.935-1.929 1.06a3 3 0 0 1-.588.078c-.54.019-1.073-.159-2.14-.515-1.398-.466-2.097-.699-2.629-.463a1.5 1.5 0 0 0-.497.36C2 6.5 2 7.236 2 8.71v8.128c0 1.042 0 1.565.283 1.958s.778.558 1.768.888l1.165.388c1.367.456 2.051.684 2.739.591.688-.091 1.287-.491 2.487-1.291l1.382-.922"/><path stroke="#464B53" stroke-linecap="round" stroke-linejoin="round" stroke-width="1.5" d="M17.474 19.953a3.482 3.482 0 0 0 3.217-2.143 3.473 3.473 0 0 0-2.532-4.743A3.48 3.48 0 0 0 14 16.476a3.475 3.475 0 0 0 3.473 3.477m2.468-1.011L22 21"/><path fill="#464B53" d="M13.75 11a.75.75 0 0 0 1.5 0h-1.5Zm0-8v8h1.5V3h-1.5Z"/></svg>