<svg xmlns="http://www.w3.org/2000/svg" width="24" height="24" fill="none" viewBox="0 0 24 24"><path fill="#464B53" d="M11 21.95v-1c-2.084-.233-3.871-1.096-5.363-2.587C4.145 16.872 3.282 15.084 3.05 13h-1a.965.965 0 0 1-.712-.288A.972.972 0 0 1 1.05 12c0-.283.095-.52.288-.712A.97.97 0 0 1 2.05 11h1c.233-2.083 1.096-3.871 2.588-5.363C7.13 4.145 8.918 3.283 11 3.05v-1c0-.283.096-.52.288-.712A.972.972 0 0 1 12 1.05c.283 0 .52.095.713.288A.96.96 0 0 1 13 2.05v1c2.083.233 3.87 1.096 5.363 2.588C19.855 7.13 20.717 8.918 20.95 11h1c.283 0 .52.096.713.288.192.192.288.43.287.712 0 .283-.096.52-.287.713a.956.956 0 0 1-.713.287h-1c-.233 2.083-1.096 3.871-2.587 5.363-1.491 1.492-3.28 2.354-5.363 2.587v1a.968.968 0 0 1-.288.713.964.964 0 0 1-.712.287.974.974 0 0 1-.712-.287.964.964 0 0 1-.288-.713ZM12 19c1.933 0 3.583-.683 4.95-2.05C18.317 15.583 19 13.933 19 12c0-1.933-.683-3.583-2.05-4.95C15.583 5.683 13.933 5 12 5c-1.934 0-3.584.683-4.95 2.05C5.683 8.417 5 10.067 5 12c0 1.933.683 3.583 2.05 4.95C8.416 18.317 10.066 19 12 19Zm0-3c-1.1 0-2.042-.392-2.825-1.175C8.39 14.042 8 13.1 8 12s.391-2.042 1.175-2.825C9.958 8.392 10.9 8 12 8s2.041.392 2.825 1.175C15.608 9.958 16 10.9 16 12s-.392 2.042-1.175 2.825C14.04 15.608 13.1 16 12 16Z"/></svg>