<svg xmlns="http://www.w3.org/2000/svg" width="80" height="80" fill="none" viewBox="0 0 80 80"><g filter="url(#a)"><rect width="48" height="48" x="16" y="16" fill="#fff" rx="24"/><path fill="#fff" d="m39.422 46.161 7.41-7.396a10.32 10.32 0 0 1-3.332-2.234 10.297 10.297 0 0 1-2.24-3.327L33.85 40.6c-.578.577-.867.866-1.116 1.184a6.604 6.604 0 0 0-.75 1.211c-.174.364-.303.752-.561 1.526l-1.365 4.083a1.058 1.058 0 0 0 .764 1.369c.192.045.393.036.58-.027l4.091-1.362c.777-.258 1.165-.387 1.53-.56a6.497 6.497 0 0 0 1.213-.749c.318-.248.608-.537 1.186-1.114Zm9.466-9.448a3.928 3.928 0 0 0 0-5.561 3.944 3.944 0 0 0-5.572 0l-.888.887.038.111a8.747 8.747 0 0 0 2.096 3.32 8.77 8.77 0 0 0 3.437 2.13l.889-.887Z"/><path fill="#464B53" d="M38.833 51.608v-1.166c-2.43-.273-4.516-1.279-6.256-3.019-1.741-1.74-2.747-3.825-3.019-6.256h-1.166c-.33 0-.608-.112-.83-.336a1.134 1.134 0 0 1-.337-.831c0-.33.111-.607.336-.83.225-.225.502-.337.83-.337h1.167c.273-2.43 1.28-4.516 3.02-6.256 1.74-1.741 3.826-2.747 6.255-3.019v-1.166c0-.33.112-.608.336-.831.224-.223.501-.335.831-.336.33 0 .607.111.832.336.225.225.336.502.335.83v1.167c2.43.273 4.516 1.279 6.257 3.02 1.74 1.74 2.746 3.825 3.018 6.255h1.166c.331 0 .608.112.832.336.224.224.336.501.335.831 0 .33-.112.607-.335.832-.222.225-.5.336-.832.335h-1.166c-.273 2.43-1.279 4.516-3.018 6.256-1.74 1.741-3.826 2.747-6.257 3.019v1.166c0 .33-.112.608-.336.832-.224.224-.501.336-.83.335-.33 0-.608-.112-.832-.335a1.125 1.125 0 0 1-.336-.832ZM40 48.167c2.256 0 4.18-.798 5.775-2.392 1.595-1.594 2.392-3.52 2.392-5.775 0-2.256-.797-4.18-2.392-5.775-1.594-1.595-3.52-2.392-5.775-2.392-2.255 0-4.18.797-5.775 2.392-1.594 1.594-2.392 3.52-2.392 5.775 0 2.255.798 4.18 2.392 5.775 1.594 1.594 3.52 2.392 5.775 2.392Zm0-3.5c-1.283 0-2.382-.457-3.296-1.371-.914-.914-1.37-2.013-1.37-3.296s.456-2.382 1.37-3.296c.914-.914 2.013-1.37 3.296-1.37s2.382.456 3.296 1.37c.914.914 1.37 2.013 1.37 3.296s-.456 2.382-1.37 3.296c-.914.914-2.013 1.37-3.296 1.37Z"/></g><defs><filter id="a" width="80" height="80" x="0" y="0" color-interpolation-filters="sRGB" filterUnits="userSpaceOnUse"><feFlood flood-opacity="0" result="BackgroundImageFix"/><feColorMatrix in="SourceAlpha" result="hardAlpha" values="0 0 0 0 0 0 0 0 0 0 0 0 0 0 0 0 0 0 127 0"/><feOffset/><feGaussianBlur stdDeviation="8"/><feComposite in2="hardAlpha" operator="out"/><feColorMatrix values="0 0 0 0 0 0 0 0 0 0 0 0 0 0 0 0 0 0 0.2 0"/><feBlend in2="BackgroundImageFix" result="effect1_dropShadow_643_14139"/><feBlend in="SourceGraphic" in2="effect1_dropShadow_643_14139" result="shape"/></filter></defs></svg>