<svg xmlns="http://www.w3.org/2000/svg" width="44" height="44" fill="none" viewBox="0 0 44 44"><g filter="url(#a)"><rect width="36" height="36" x="4" fill="#4AA662" rx="18"/><rect width="33" height="33" x="5.5" y="1.5" stroke="#fff" stroke-width="3" rx="16.5"/><path fill="#fff" d="m21.55 22.62 5.547-5.546a7.725 7.725 0 0 1-2.495-1.676 7.723 7.723 0 0 1-1.676-2.495L17.38 18.45c-.433.433-.65.65-.835.888a4.95 4.95 0 0 0-.562.908c-.13.273-.226.564-.42 1.145l-1.021 3.062a.795.795 0 0 0 1.006 1.006l3.062-1.021c.581-.194.872-.29 1.145-.42.323-.154.626-.341.908-.562.239-.186.455-.402.888-.835Zm7.086-7.085a2.95 2.95 0 1 0-4.17-4.171l-.666.665.028.084c.328.938.865 1.789 1.57 2.49A6.564 6.564 0 0 0 27.97 16.2l.665-.665Z"/></g><defs><filter id="a" width="44" height="44" x="0" y="0" color-interpolation-filters="sRGB" filterUnits="userSpaceOnUse"><feFlood flood-opacity="0" result="BackgroundImageFix"/><feColorMatrix in="SourceAlpha" result="hardAlpha" values="0 0 0 0 0 0 0 0 0 0 0 0 0 0 0 0 0 0 127 0"/><feOffset dy="4"/><feGaussianBlur stdDeviation="2"/><feComposite in2="hardAlpha" operator="out"/><feColorMatrix values="0 0 0 0 0 0 0 0 0 0 0 0 0 0 0 0 0 0 0.1 0"/><feBlend in2="BackgroundImageFix" result="effect1_dropShadow_643_14066"/><feBlend in="SourceGraphic" in2="effect1_dropShadow_643_14066" result="shape"/></filter></defs></svg>