<svg xmlns="http://www.w3.org/2000/svg" width="24" height="24" fill="none" viewBox="0 0 24 24"><g clip-path="url(#a)"><path fill="#FFC406" d="M4.728 15.14 15.69 4.177l5.128 5.13-10.964 10.96-5.127-5.129Z"/><path fill="#ED4C5C" d="m23.072 2.581-.653-.653c-1.238-1.237-3.232-1.237-4.503 0L15.68 4.162l5.156 5.157 2.235-2.235a3.195 3.195 0 0 0 0-4.503Z"/><path fill="#C7D3D8" d="m14.3 5.575 1.41-1.41 5.128 5.129-1.409 1.41L14.3 5.575Z"/><path fill="#C7D3D8" d="m14.835 6.11 1.41-1.41 4.035 4.035-1.41 1.41-4.035-4.035Z"/><path fill="#FED0AC" d="M4.716 15.128 2.48 20.972l1.547 1.547 5.844-2.235-5.156-5.156Z"/><path fill="#333" d="M2.103 22.003c-.31.825.103 1.203.928.894l2.82-1.066-2.648-2.647-1.1 2.82Z"/><path fill="#FFC406" d="m4.712 15.154 9.577-9.577 1.702 1.702-9.577 9.576-1.702-1.701ZM8.154 18.58l9.577-9.577 1.702 1.702-9.577 9.577-1.702-1.702Z"/></g><defs><clipPath id="a"><path fill="#fff" d="M2 1h22v22H2z"/></clipPath></defs></svg>