<svg xmlns="http://www.w3.org/2000/svg" width="135" height="27" fill="none"><path fill="#000" d="M62.807 2.632h3.886v18.024h-3.886V2.632ZM23.253 20.879c-1.4 0-2.657-.325-3.77-.975a7.013 7.013 0 0 1-2.61-2.628 7.231 7.231 0 0 1-.928-3.602c0-1.315.294-2.523.882-3.625a6.827 6.827 0 0 1 2.482-2.638c1.06-.658 2.262-.987 3.607-.987 1.454 0 2.714.31 3.782.93a6.13 6.13 0 0 1 2.435 2.57c.565 1.093.847 2.336.847 3.728 0 .305-.015.607-.046.906a4.006 4.006 0 0 1-.092.424h-9.849c.256.765.692 1.361 1.311 1.79a3.62 3.62 0 0 0 2.111.642c.503 0 .955-.069 1.357-.206.41-.146.742-.316 1.129-.583.1-.077.468-.331.468-.331s.302.458.402.596l.604.795c.67.928.938 1.325.938 1.325s-.24.21-.363.308a7.492 7.492 0 0 1-2.157 1.16 7.853 7.853 0 0 1-2.54.4Zm2.83-8.765c-.217-.757-.588-1.338-1.114-1.743-.526-.406-1.167-.608-1.925-.608-.742 0-1.388.206-1.937.62-.541.412-.924.99-1.148 1.731h6.124ZM38.53 20.879c-1.4 0-2.656-.325-3.77-.975a7.012 7.012 0 0 1-2.61-2.628 7.231 7.231 0 0 1-.927-3.602c0-1.315.294-2.523.881-3.625a6.828 6.828 0 0 1 2.482-2.638c1.06-.658 2.262-.987 3.608-.987 1.453 0 2.714.31 3.78.93a6.129 6.129 0 0 1 2.437 2.57c.564 1.093.846 2.336.846 3.728 0 .305-.015.607-.046.906-.016.143-.091.424-.091.424H35.27c.255.765.692 1.361 1.31 1.79a3.62 3.62 0 0 0 2.111.642c.503 0 .955-.069 1.357-.206.41-.146.742-.316 1.129-.583.1-.077.469-.331.469-.331s.301.458.402.596l.603.795c.67.928.938 1.325.938 1.325s-.239.21-.363.308a7.492 7.492 0 0 1-2.157 1.16 7.852 7.852 0 0 1-2.54.4Zm2.83-8.765c-.216-.757-.588-1.338-1.113-1.743-.526-.406-1.168-.608-1.926-.608-.742 0-1.388.206-1.937.62-.541.412-.924.99-1.148 1.731h6.124ZM75.772 20.879c-1.4 0-2.656-.325-3.77-.975a7.012 7.012 0 0 1-2.61-2.628 7.23 7.23 0 0 1-.927-3.602c0-1.315.294-2.523.881-3.625a6.828 6.828 0 0 1 2.483-2.638c1.059-.658 2.261-.987 3.607-.987 1.453 0 2.714.31 3.781.93a6.13 6.13 0 0 1 2.436 2.57c.564 1.093.846 2.336.846 3.728 0 .305-.015.607-.046.906a4.006 4.006 0 0 1-.091.424h-9.849c.255.765.692 1.361 1.31 1.79a3.62 3.62 0 0 0 2.112.642c.502 0 .954-.069 1.357-.206.41-.146.741-.316 1.128-.583.1-.077.469-.331.469-.331s.302.458.402.596l.603.795c.67.928.938 1.325.938 1.325s-.238.21-.362.308a7.492 7.492 0 0 1-2.158 1.16 7.852 7.852 0 0 1-2.54.4Zm2.83-8.765c-.216-.757-.587-1.338-1.113-1.743-.526-.406-1.168-.608-1.926-.608-.742 0-1.388.206-1.937.62-.54.412-.924.99-1.148 1.731h6.124Z"/><path fill="#000" fill-rule="evenodd" d="M14.606 13.566c0 3.99-3.27 7.223-7.303 7.223a7.336 7.336 0 0 1-3.417-.838V24.5H0V13.566c0-3.989 3.27-7.223 7.303-7.223 4.033 0 7.303 3.234 7.303 7.223Zm-3.752 0c0 1.94-1.59 3.512-3.551 3.512s-3.551-1.572-3.551-3.512 1.59-3.512 3.551-3.512 3.551 1.572 3.551 3.512ZM46.797 2.5h3.886v11.408a58.367 58.367 0 0 0 1.064-.055 7.962 7.962 0 0 1-.055-1.71c.182-2.505 1.209-4.482 2.764-5.524 1.61-1.078 3.749-1.042 5.167.552 1.395 1.567 1.187 3.732.471 5.34a7.878 7.878 0 0 1-3.355 3.642c.872.706 2.005 1.239 3.2 1.59l-.958 3.176c-1.726-.51-3.604-1.39-5.034-2.8a8.165 8.165 0 0 1-.893-1.041c-.48.043-.986.077-1.498.105-.288.016-.58.03-.873.042v3.3h-3.886V2.5Zm10.23 8.677a4.545 4.545 0 0 1-1.976 2.112 4.735 4.735 0 0 1-.017-.909c.13-1.799.823-2.698 1.3-3.017.422-.283.63-.166.774-.003.169.19.377.79-.08 1.817Z" clip-rule="evenodd"/><path fill="#000" d="M103.547 19.719h-14.52v-1.617h6.258v-2.584H90.75v-5.204h9.14V8.347h-9.175V6.764h11.109v5.097h-9.123v2.057h9.492v1.6h-4.974v2.584h6.328v1.617Zm13.316-10.705c0 .949-.012 1.763-.035 2.443a35.65 35.65 0 0 1-.15 2.338 37.16 37.16 0 0 1-.395 2.883l-1.987-.176c.194-.967.334-1.88.422-2.742.088-.867.141-1.64.158-2.32.024-.68.035-1.489.035-2.426v-.211h-9.158V7.22h11.11v1.793Zm-12.639 8.771h14.484v1.6h-14.484v-1.6Zm28.433-.615h-1.969V5.69h1.969V17.17ZM119.702 10.7c0-.756.187-1.435.562-2.039a3.966 3.966 0 0 1 1.547-1.415 4.607 4.607 0 0 1 2.18-.518c.797 0 1.52.172 2.171.518a3.821 3.821 0 0 1 2.1 3.454c0 .768-.187 1.456-.562 2.066a3.82 3.82 0 0 1-1.538 1.415c-.651.34-1.374.51-2.171.51a4.67 4.67 0 0 1-2.18-.51 3.966 3.966 0 0 1-1.547-1.415c-.375-.61-.562-1.298-.562-2.066Zm1.916 0c0 .457.1.859.299 1.204.205.346.486.613.843.8.364.188.774.281 1.231.281.445 0 .847-.093 1.204-.28.357-.188.639-.455.844-.8.205-.346.307-.748.307-1.205 0-.445-.102-.84-.307-1.186a2.075 2.075 0 0 0-.853-.8 2.532 2.532 0 0 0-1.195-.281c-.451 0-.858.093-1.222.28a2.079 2.079 0 0 0-.852.8 2.336 2.336 0 0 0-.299 1.187Zm.527 5.309h1.969v3.656h8.982v1.582h-10.951V16.01Z"/></svg>