<svg xmlns="http://www.w3.org/2000/svg" width="356" height="56" fill="none"><rect width="356" height="56" fill="#FEE500" rx="8"/><path fill="#000" d="M92.001 19c5.8 0 10.501 3.664 10.501 8.185 0 4.52-4.701 8.184-10.5 8.184a14.004 14.004 0 0 1-1.727-.11l-4.408 2.883c-.501.265-.678.236-.472-.413l.892-3.678c-2.88-1.46-4.785-3.99-4.785-6.866 0-4.52 4.7-8.185 10.5-8.185"/><path fill="#000" fill-opacity=".85" d="M128.789 21.738c-.006 1.746-.211 3.32-.615 4.72-.399 1.395-1.125 2.695-2.18 3.902-1.049 1.207-2.508 2.277-4.377 3.208l-1.072-1.476c1.348-.662 2.452-1.392 3.313-2.189.862-.797 1.53-1.675 2.004-2.636l-4.948.465-.246-1.687 5.783-.36c.205-.75.337-1.538.396-2.365h-5.353v-1.582h7.295Zm2.232-1.564h1.952v6.223h2.355v1.6h-2.355v8.032h-1.952V20.174Zm12.965 1.564c-.006 1.746-.211 3.32-.616 4.72-.398 1.395-1.125 2.695-2.179 3.902-1.049 1.207-2.508 2.277-4.377 3.208l-1.072-1.476c1.347-.662 2.452-1.392 3.313-2.189.861-.797 1.529-1.675 2.004-2.636l-4.948.465-.246-1.687 5.783-.36c.205-.75.337-1.538.395-2.365h-5.352v-1.582h7.295Zm2.232-1.564h1.951v6.223h2.356v1.6h-2.356v8.032h-1.951V20.174Zm11.927.896c1.131 0 2.145.179 3.041.536.903.358 1.609.862 2.118 1.512.51.65.765 1.398.765 2.241 0 .78-.208 1.474-.624 2.083-.416.61-.999 1.102-1.749 1.477-.75.37-1.611.604-2.584.703v2.91h6.328v1.599h-14.519v-1.6h6.257v-2.909c-.966-.1-1.822-.334-2.566-.703-.744-.375-1.324-.867-1.74-1.477-.41-.609-.615-1.303-.615-2.083 0-.843.252-1.59.755-2.24.51-.651 1.21-1.155 2.101-1.513.896-.357 1.907-.536 3.032-.536Zm-3.972 4.29c0 .562.167 1.051.501 1.467.334.41.802.727 1.406.95.603.216 1.292.325 2.065.325.785 0 1.48-.109 2.083-.326.61-.222 1.081-.539 1.415-.949.34-.416.51-.905.51-1.468 0-.545-.17-1.022-.51-1.432-.34-.41-.814-.724-1.424-.94-.603-.223-1.294-.335-2.074-.335-.773 0-1.462.112-2.065.334-.598.217-1.067.53-1.406.94-.334.41-.501.889-.501 1.433Zm26.464 8.859h-14.52v-1.617h6.258v-2.584h-4.535v-5.204h9.141v-1.968h-9.176v-1.582h11.109v5.097h-9.123v2.057h9.492v1.6h-4.974v2.584h6.328v1.617Zm9.633.457c-.838 0-1.593-.156-2.267-.466-.668-.31-1.199-.741-1.591-1.292a3.328 3.328 0 0 1-.624-1.863h2.232c.024.334.138.635.343.905.205.27.475.483.809.642.334.152.7.228 1.098.228.469 0 .888-.105 1.257-.316.375-.217.665-.51.87-.88a2.47 2.47 0 0 0 .317-1.247c0-.48-.109-.911-.326-1.292a2.268 2.268 0 0 0-.905-.888 2.708 2.708 0 0 0-1.318-.316c-1.002 0-1.694.363-2.074 1.09h-2.127l.773-7.208h7.524v1.916h-5.643l-.387 3.375h.123c.252-.287.598-.518 1.037-.694.44-.176.914-.267 1.424-.272.78 0 1.483.181 2.11.545a3.829 3.829 0 0 1 1.467 1.511c.358.639.537 1.36.537 2.162 0 .838-.197 1.588-.589 2.25a4.115 4.115 0 0 1-1.653 1.556c-.709.37-1.514.554-2.417.554Zm20.224-.492h-14.519v-1.6h6.275v-3.287h1.934v3.287h6.31v1.6Zm-13.922-5.871c1.12-.147 2.095-.428 2.927-.844.838-.416 1.488-.92 1.951-1.512.469-.598.727-1.23.774-1.898h-4.966v-1.582h4.992V20.42h1.934v2.057h5.01v1.582h-4.966c.047.668.301 1.297.764 1.89.463.591 1.111 1.098 1.943 1.52.838.416 1.813.697 2.926.843l-.72 1.53c-1.365-.194-2.564-.58-3.595-1.16-1.025-.586-1.802-1.313-2.329-2.18-.527.873-1.304 1.6-2.329 2.18-1.02.58-2.212.966-3.577 1.16l-.739-1.53Zm22.668.738h-7.524v-7.506h7.524v7.506Zm-5.713 1.6h1.951v3.515h8.859v1.582h-10.81V30.65Zm3.797-3.147v-4.395h-3.692v4.395h3.692Zm4.429-7.33h1.952v4.658h2.214v1.635h-2.214v5.308h-1.952V20.174Zm18.326 15.89h-1.881v-15.89h1.881v15.89Zm-13.553-9.017c0-1.154.141-2.156.422-3.006.281-.855.68-1.512 1.195-1.969a2.665 2.665 0 0 1 1.811-.685c.639 0 1.204.19 1.696.571.498.38.897.929 1.196 1.644.304.714.495 1.564.571 2.548h1.529v-5.695h1.863v14.836h-1.863v-7.559h-1.512c-.058 1.026-.24 1.916-.544 2.672-.299.75-.701 1.325-1.205 1.723a2.712 2.712 0 0 1-1.731.598 2.666 2.666 0 0 1-1.811-.686c-.515-.457-.914-1.113-1.195-1.969-.281-.861-.422-1.869-.422-3.023Zm1.811.053c0 1.212.14 2.144.422 2.794.287.65.685.973 1.195.967.533.006.946-.319 1.239-.975.293-.656.443-1.603.448-2.84-.005-1.23-.155-2.173-.448-2.83-.293-.661-.706-.99-1.239-.984-.516-.005-.914.326-1.195.994-.282.668-.422 1.626-.422 2.874Zm23.151-3.112c-.006.979.155 1.93.483 2.857a7.67 7.67 0 0 0 1.424 2.47 5.94 5.94 0 0 0 2.189 1.617l-1.161 1.564a6.791 6.791 0 0 1-2.346-1.81 9.019 9.019 0 0 1-1.556-2.787c-.375 1.143-.905 2.145-1.591 3.006a6.74 6.74 0 0 1-2.434 1.96L245.3 31.23a6.036 6.036 0 0 0 2.242-1.67 8.022 8.022 0 0 0 1.45-2.575 9.283 9.283 0 0 0 .51-2.997v-2.531h1.986v2.531Zm5.238-3.814h1.969v15.908h-1.969V20.174Zm9.642 2.76c0 .668.141 1.31.422 1.924a4.947 4.947 0 0 0 1.274 1.653c.569.486 1.257.864 2.066 1.134l-.985 1.511a6.424 6.424 0 0 1-2.258-1.283 6.164 6.164 0 0 1-1.477-1.986 6.35 6.35 0 0 1-1.529 2.17 6.482 6.482 0 0 1-2.347 1.38l-1.037-1.511c.826-.276 1.532-.671 2.118-1.187a5.162 5.162 0 0 0 1.336-1.758 4.925 4.925 0 0 0 .448-2.047v-.194h-3.357v-1.564h8.631v1.564h-3.305v.194Zm-3.744 7.558h10.582v5.573h-1.951v-4.008h-8.631v-1.565Zm8.631-10.318h1.951v3.973h2.215v1.634h-2.215v3.973h-1.951v-9.58Z"/></svg>