<svg width="21" height="20" viewBox="0 0 21 20" fill="none" xmlns="http://www.w3.org/2000/svg">
<path d="M14.452 12.8307L13.9464 13.3636C13.9464 13.3636 12.7431 14.6295 9.45978 11.173C6.17647 7.71651 7.37979 6.45062 7.37979 6.45062L7.69757 6.11414C8.48312 5.28825 8.55756 3.96118 7.87201 2.99177L6.47202 1.01175C5.62314 -0.188261 3.98426 -0.347086 3.01205 0.676452L1.26761 2.51176C0.786505 3.02 0.464285 3.67648 0.503173 4.40589C0.603173 6.27297 1.40094 10.2883 5.8498 14.973C10.5687 19.9401 14.9964 20.1378 16.8064 19.959C17.3797 19.9025 17.8775 19.5943 18.2786 19.1707L19.8564 17.5095C20.923 16.3883 20.623 14.4648 19.2586 13.6801L17.1364 12.4577C16.2408 11.9436 15.152 12.0942 14.452 12.8307Z" fill="black"/>
</svg>
