<svg xmlns="http://www.w3.org/2000/svg" width="356" height="56" fill="none"><rect width="356" height="56" fill="#F6F8FA" rx="8"/><path fill="#000" d="m118.452 30.83-.506.534s-1.203 1.265-4.486-2.191c-3.284-3.456-2.08-4.722-2.08-4.722l.318-.337c.785-.826.86-2.153.174-3.122l-1.4-1.98c-.849-1.2-2.488-1.36-3.46-.335l-1.744 1.835c-.481.508-.804 1.165-.765 1.894.1 1.867.898 5.882 5.347 10.567 4.719 4.967 9.146 5.165 10.956 4.986.574-.056 1.072-.365 1.473-.788l1.577-1.661c1.067-1.122.767-3.045-.597-3.83l-2.123-1.222c-.895-.514-1.984-.364-2.684.373ZM156.334 31.793h-1.951v-5.818h-2.813v-1.582h2.813V20.19h1.951v11.602Zm.404 3.955H145.91v-4.975h1.951v3.393h8.877v1.582Zm-7.875-12.392c0 .65.144 1.286.431 1.907a5.036 5.036 0 0 0 1.274 1.66c.563.487 1.243.862 2.039 1.126l-.984 1.564a6.487 6.487 0 0 1-2.25-1.3 6.333 6.333 0 0 1-1.477-2.013 6.536 6.536 0 0 1-1.529 2.232 6.452 6.452 0 0 1-2.373 1.415l-1.002-1.582c.82-.27 1.521-.662 2.101-1.177a5.271 5.271 0 0 0 1.327-1.776 4.94 4.94 0 0 0 .457-2.074v-.422h-3.305v-1.582h8.578v1.582h-3.287v.44Zm21.929 3.374h2.233v1.635h-2.233v7.7h-1.968V20.174h1.968v6.556Zm-12.761 4.922c1.734 0 3.088-.011 4.06-.035v-1.485a4.298 4.298 0 0 1-1.512-.545 2.888 2.888 0 0 1-.993-.993 2.554 2.554 0 0 1-.342-1.336 2.577 2.577 0 0 1 .474-1.565c.322-.45.776-.8 1.362-1.046.586-.252 1.257-.377 2.013-.377.744 0 1.406.125 1.986.378.586.246 1.043.594 1.372 1.045.334.451.503.973.509 1.565a2.603 2.603 0 0 1-.369 1.336c-.24.398-.58.732-1.019 1.002a4.178 4.178 0 0 1-1.512.536v1.415c1.518-.082 2.824-.2 3.92-.352l.123 1.424c-1.512.27-3.059.446-4.641.528a99.933 99.933 0 0 1-5.15.123l-.281-1.618Zm9.773-8.103h-9.475v-1.547h3.762v-1.758h1.969v1.758h3.744v1.547Zm-4.711 2.215c-.615.011-1.104.15-1.468.413-.357.258-.536.618-.536 1.08 0 .458.182.815.545 1.073.363.258.85.38 1.459.37.604.01 1.084-.112 1.442-.37.363-.264.544-.621.544-1.072 0-.457-.181-.818-.544-1.081-.358-.264-.838-.402-1.442-.413Zm23.634 6.152h-1.951v-5.854h-3.199v3.27h-7.436v-8.104h1.952v2.567h3.55v-2.567h1.934v3.252h3.199v-4.289h1.951v11.725Zm.352 3.832h-10.828v-4.992h1.986v3.41h8.842v1.582Zm-7.436-7.963v-2.478h-3.55v2.478h3.55Zm22.756-3.902h-13.131V22.3h5.607v-1.916h1.934V22.3h5.59v1.582Zm.738 10.476h-14.52v-1.582h6.258v-1.95c-.92-.077-1.711-.244-2.373-.502-.656-.264-1.16-.612-1.512-1.046a2.365 2.365 0 0 1-.509-1.529 2.28 2.28 0 0 1 .632-1.635c.434-.463 1.055-.814 1.864-1.054.808-.247 1.763-.37 2.865-.37 1.084 0 2.027.123 2.83.37.809.24 1.43.591 1.863 1.054.434.457.651 1.002.651 1.635 0 .574-.176 1.081-.528 1.52-.351.434-.855.783-1.511 1.046-.657.258-1.436.425-2.338.501v1.96h6.328v1.582Zm-7.295-8.138c-1.096.011-1.931.146-2.505.404-.574.252-.858.627-.853 1.125-.005.504.279.885.853 1.143.574.257 1.409.392 2.505.404 1.078-.012 1.904-.147 2.478-.404.575-.258.862-.64.862-1.143 0-.498-.287-.873-.862-1.125-.574-.258-1.4-.393-2.478-.404Zm22.491 7.998h-14.519v-1.617h6.258v-2.584h-4.535v-5.204h9.14v-1.968h-9.176v-1.582h11.11v5.097h-9.123v2.057h9.492v1.6h-4.975v2.584h6.328v1.617Zm10.601-10.23c-.006.978.155 1.93.483 2.856a7.67 7.67 0 0 0 1.424 2.47 5.945 5.945 0 0 0 2.188 1.617l-1.16 1.564a6.749 6.749 0 0 1-2.346-1.82 9.02 9.02 0 0 1-1.556-2.785c-.375 1.148-.905 2.156-1.591 3.023a6.662 6.662 0 0 1-2.434 1.951l-1.196-1.635a6.024 6.024 0 0 0 2.241-1.67 7.914 7.914 0 0 0 1.459-2.575 9.166 9.166 0 0 0 .501-2.997v-2.531h1.987v2.531Zm7.207 12.093h-1.969V20.174h1.969v15.908Zm7.673-13.148c0 .662.141 1.303.422 1.924a4.947 4.947 0 0 0 1.274 1.653c.569.486 1.257.864 2.066 1.134l-.985 1.511a6.343 6.343 0 0 1-2.25-1.274 6.198 6.198 0 0 1-1.485-1.995 6.35 6.35 0 0 1-1.529 2.17 6.49 6.49 0 0 1-2.347 1.38l-1.037-1.511c.832-.276 1.541-.668 2.127-1.178a5.209 5.209 0 0 0 1.327-1.758 4.944 4.944 0 0 0 .448-2.056v-.194h-3.357v-1.564h8.631v1.564h-3.305v.194Zm6.838 1.212h2.215v1.635h-2.215v3.973h-1.951v-9.58h1.951v3.973Zm0 11.919h-1.951v-4.008h-8.631v-1.565h10.582v5.573Z"/></svg>