<svg xmlns="http://www.w3.org/2000/svg" width="83" height="22" fill="none"><path fill="#000" d="M62.806.132h3.886v18.024h-3.886V.132ZM23.254 18.379c-1.4 0-2.657-.325-3.77-.975a7.012 7.012 0 0 1-2.61-2.627 7.231 7.231 0 0 1-.928-3.603c0-1.315.294-2.523.882-3.625a6.828 6.828 0 0 1 2.482-2.638c1.06-.658 2.262-.987 3.607-.987 1.454 0 2.714.31 3.781.93a6.13 6.13 0 0 1 2.436 2.57c.565 1.093.847 2.336.847 3.728 0 .305-.016.607-.046.906-.016.143-.092.424-.092.424h-9.849c.256.765.692 1.362 1.311 1.79a3.62 3.62 0 0 0 2.111.642c.503 0 .955-.069 1.357-.206.41-.146.742-.316 1.128-.583.101-.077.47-.332.47-.332s.301.46.402.597l.602.795c.67.928.939 1.325.939 1.325s-.24.21-.363.308a7.493 7.493 0 0 1-2.157 1.16 7.853 7.853 0 0 1-2.54.4Zm2.83-8.765c-.217-.757-.588-1.338-1.114-1.743-.526-.406-1.167-.608-1.925-.608-.743 0-1.388.206-1.937.619-.541.413-.924.99-1.149 1.732h6.125ZM38.529 18.379c-1.4 0-2.656-.325-3.77-.975a7.012 7.012 0 0 1-2.61-2.627 7.231 7.231 0 0 1-.927-3.603c0-1.315.293-2.523.881-3.625a6.828 6.828 0 0 1 2.482-2.638c1.06-.658 2.262-.987 3.608-.987 1.453 0 2.714.31 3.78.93a6.13 6.13 0 0 1 2.437 2.57c.564 1.093.846 2.336.846 3.728 0 .305-.015.607-.046.906-.016.143-.091.424-.091.424H35.27c.255.765.692 1.362 1.31 1.79a3.62 3.62 0 0 0 2.111.642c.503 0 .955-.069 1.357-.206.41-.146.742-.316 1.129-.583.1-.077.469-.332.469-.332s.301.46.402.597l.603.795c.67.928.938 1.325.938 1.325s-.239.21-.362.308a7.493 7.493 0 0 1-2.158 1.16 7.853 7.853 0 0 1-2.54.4Zm2.83-8.765c-.216-.757-.587-1.338-1.113-1.743-.526-.406-1.168-.608-1.926-.608-.742 0-1.388.206-1.937.619-.541.413-.924.99-1.148 1.732h6.124ZM75.772 18.379c-1.4 0-2.656-.325-3.77-.975a7.012 7.012 0 0 1-2.61-2.627 7.23 7.23 0 0 1-.927-3.603c0-1.315.294-2.523.881-3.625a6.828 6.828 0 0 1 2.483-2.638c1.059-.658 2.261-.987 3.607-.987 1.453 0 2.714.31 3.781.93a6.13 6.13 0 0 1 2.436 2.57c.564 1.093.846 2.336.846 3.728 0 .305-.015.607-.046.906a4.006 4.006 0 0 1-.091.424h-9.849c.255.765.692 1.362 1.31 1.79a3.62 3.62 0 0 0 2.112.642c.502 0 .954-.069 1.357-.206.41-.146.741-.316 1.128-.583.1-.077.469-.332.469-.332s.302.46.402.597l.603.795c.67.928.938 1.325.938 1.325s-.238.21-.362.308a7.492 7.492 0 0 1-2.158 1.16 7.852 7.852 0 0 1-2.54.4Zm2.83-8.765c-.216-.757-.587-1.338-1.113-1.743-.526-.406-1.168-.608-1.926-.608-.742 0-1.388.206-1.937.619-.54.413-.924.99-1.148 1.732h6.124Z"/><path fill="#000" fill-rule="evenodd" d="M14.606 11.066c0 3.99-3.27 7.223-7.303 7.223a7.336 7.336 0 0 1-3.417-.838V22H0V11.066c0-3.989 3.27-7.223 7.303-7.223 4.033 0 7.303 3.234 7.303 7.223Zm-3.752 0c0 1.94-1.59 3.512-3.551 3.512s-3.551-1.572-3.551-3.512 1.59-3.512 3.551-3.512 3.551 1.572 3.551 3.512ZM46.797 0h3.886v11.408a58.367 58.367 0 0 0 1.064-.055 7.962 7.962 0 0 1-.055-1.71c.182-2.505 1.209-4.482 2.764-5.524 1.61-1.078 3.749-1.042 5.167.552 1.395 1.567 1.187 3.732.471 5.34a7.878 7.878 0 0 1-3.355 3.642c.872.705 2.005 1.239 3.2 1.59l-.958 3.176c-1.726-.51-3.604-1.39-5.034-2.8a8.165 8.165 0 0 1-.893-1.041c-.48.043-.986.077-1.498.105-.288.016-.58.03-.873.042v3.3h-3.886V0Zm10.23 8.677a4.545 4.545 0 0 1-1.976 2.112 4.735 4.735 0 0 1-.017-.909c.13-1.799.823-2.698 1.3-3.017.422-.283.63-.166.774-.003.169.19.377.79-.08 1.817Z" clip-rule="evenodd"/></svg>