<svg xmlns="http://www.w3.org/2000/svg" width="52" height="60" fill="none"><path stroke="#464B53" stroke-width="2" d="M17 18a9 9 0 0 1 18 0v5.726c0 .954 0 1.429-.142 1.81a2.251 2.251 0 0 1-1.322 1.322c-.381.142-.857.142-1.81.142H26a9 9 0 0 1-9-9Z"/><path stroke="#464B53" stroke-linecap="round" stroke-linejoin="round" stroke-width="2" d="M22.625 16.875h6.75M26 21.375h3.375"/><path fill="#464B53" d="M19.766 39.115v11.553h-1.523V39.115h1.523Zm-2.462.254V50.16h-1.511v-5.306H13.9c-.66 1.32-1.733 2.462-3.377 3.415l-.914-1.143c2.33-1.384 3.358-3.066 3.58-5.332h-2.945v-1.308h4.558c-.007 1.099-.121 2.133-.394 3.085h1.384V39.37h1.51Zm7.915 2.361c0 2.12.965 4.253 2.92 5.079l-.952 1.294c-1.32-.596-2.234-1.745-2.755-3.173-.527 1.555-1.473 2.812-2.882 3.453l-.977-1.346c2.018-.85 2.996-3.06 3.008-5.306v-1.727h1.638v1.727Zm5.18-2.615v11.578H28.76V39.115H30.4Zm7.776.965v1.295h-.94v3.212c.464-.038.915-.083 1.346-.14l.115 1.194c-2.311.393-4.952.431-6.881.431l-.178-1.295 1.257-.012v-3.39h-.952V40.08h6.233Zm2.692-.952v3.25h1.561v1.346h-1.561v3.91h-1.625v-8.506h1.625Zm.418 10.042v1.295h-7.909V46.82h1.613v2.349h6.296Zm-6.83-4.443 1.22-.051v-3.301h-1.22v3.352Z"/></svg>