<svg width="52" height="68" viewBox="0 0 52 68" fill="none" xmlns="http://www.w3.org/2000/svg">
<path fill-rule="evenodd" clip-rule="evenodd" d="M26 12.5C20.4772 12.5 16 16.9772 16 22.5C16 24.2265 16.4381 25.8535 17.2093 27.2721L16.4772 31.2098C16.4566 31.321 16.4634 31.4356 16.497 31.5437C16.5305 31.6518 16.5899 31.7501 16.6699 31.8301C16.7499 31.9101 16.8482 31.9695 16.9563 32.003C17.0643 32.0366 17.179 32.0434 17.2902 32.0228L21.2279 31.2898C22.6922 32.0864 24.3331 32.5025 26 32.5C31.5228 32.5 36 28.0228 36 22.5C36 16.9772 31.5228 12.5 26 12.5ZM30.6512 21.3372C30.3428 21.3372 30.047 21.4597 29.8289 21.6778C29.6109 21.8958 29.4884 22.1916 29.4884 22.5C29.4884 22.8084 29.6109 23.1041 29.8289 23.3222C30.047 23.5403 30.3428 23.6628 30.6512 23.6628C30.9595 23.6628 31.2553 23.5403 31.4734 23.3222C31.6914 23.1041 31.8139 22.8084 31.8139 22.5C31.8139 22.1916 31.6914 21.8958 31.4734 21.6778C31.2553 21.4597 30.9595 21.3372 30.6512 21.3372ZM24.8372 22.5C24.8372 22.1916 24.9597 21.8958 25.1778 21.6778C25.3958 21.4597 25.6916 21.3372 26 21.3372C26.3084 21.3372 26.6041 21.4597 26.8222 21.6778C27.0403 21.8958 27.1628 22.1916 27.1628 22.5C27.1628 22.8084 27.0403 23.1041 26.8222 23.3222C26.6041 23.5403 26.3084 23.6628 26 23.6628C25.6916 23.6628 25.3958 23.5403 25.1778 23.3222C24.9597 23.1041 24.8372 22.8084 24.8372 22.5ZM21.3488 21.3372C21.0404 21.3372 20.7447 21.4597 20.5266 21.6778C20.3086 21.8958 20.186 22.1916 20.186 22.5C20.186 22.8084 20.3086 23.1041 20.5266 23.3222C20.7447 23.5403 21.0404 23.6628 21.3488 23.6628C21.6572 23.6628 21.953 23.5403 22.1711 23.3222C22.3891 23.1041 22.5116 22.8084 22.5116 22.5C22.5116 22.1916 22.3891 21.8958 22.1711 21.6778C21.953 21.4597 21.6572 21.3372 21.3488 21.3372Z" fill="#4AA662"/>
<path d="M19.7663 43.1152V54.668H18.2429V43.1152H19.7663ZM17.3035 43.3691V54.1602H15.7927V48.8535H13.9011C13.241 50.1738 12.1682 51.3164 10.5242 52.2686L9.6101 51.126C11.9397 49.7422 12.968 48.0601 13.1902 45.7939H10.2449V44.4863H14.8025C14.7961 45.5845 14.6819 46.6191 14.4089 47.5713H15.7927V43.3691H17.3035ZM25.2192 45.7305C25.2192 47.8506 26.1841 49.9834 28.1392 50.8086L27.187 52.1035C25.8667 51.5068 24.9526 50.3579 24.4321 48.9297C23.9053 50.4849 22.9595 51.7417 21.5503 52.3828L20.5728 51.0371C22.5913 50.1865 23.5688 47.9775 23.5815 45.7305V44.0039H25.2192V45.7305ZM30.3989 43.1152V54.6934H28.7612V43.1152H30.3989ZM38.1751 44.0801V45.375H37.2356V48.5869C37.699 48.5488 38.1497 48.5044 38.5813 48.4473L38.6956 49.6406C36.385 50.0342 33.7444 50.0723 31.8147 50.0723L31.637 48.7773L32.8938 48.7646V45.375H31.9417V44.0801H38.1751ZM40.8665 43.1279V46.3779H42.428V47.7236H40.8665V51.6338H39.2415V43.1279H40.8665ZM41.2854 53.1699V54.4648H33.3762V50.8213H34.9885V53.1699H41.2854ZM34.4553 48.7266L35.6741 48.6758V45.375H34.4553V48.7266Z" fill="#4AA662"/>
</svg>
