<svg width="52" height="68" viewBox="0 0 52 68" fill="none" xmlns="http://www.w3.org/2000/svg">
<path d="M31 23C31.1326 23 31.2598 22.9473 31.3536 22.8536C31.4473 22.7598 31.5 22.6326 31.5 22.5C31.5 22.3674 31.4473 22.2402 31.3536 22.1464C31.2598 22.0527 31.1326 22 31 22C30.8674 22 30.7402 22.0527 30.6464 22.1464C30.5527 22.2402 30.5 22.3674 30.5 22.5C30.5 22.6326 30.5527 22.7598 30.6464 22.8536C30.7402 22.9473 30.8674 23 31 23ZM26 23C26.1326 23 26.2598 22.9473 26.3536 22.8536C26.4473 22.7598 26.5 22.6326 26.5 22.5C26.5 22.3674 26.4473 22.2402 26.3536 22.1464C26.2598 22.0527 26.1326 22 26 22C25.8674 22 25.7402 22.0527 25.6464 22.1464C25.5527 22.2402 25.5 22.3674 25.5 22.5C25.5 22.6326 25.5527 22.7598 25.6464 22.8536C25.7402 22.9473 25.8674 23 26 23ZM21 23C21.1326 23 21.2598 22.9473 21.3536 22.8536C21.4473 22.7598 21.5 22.6326 21.5 22.5C21.5 22.3674 21.4473 22.2402 21.3536 22.1464C21.2598 22.0527 21.1326 22 21 22C20.8674 22 20.7402 22.0527 20.6464 22.1464C20.5527 22.2402 20.5 22.3674 20.5 22.5C20.5 22.6326 20.5527 22.7598 20.6464 22.8536C20.7402 22.9473 20.8674 23 21 23Z" fill="#CACDD3" stroke="#CACDD3" stroke-width="1.5" stroke-linecap="round" stroke-linejoin="round"/>
<path d="M26 32.5C31.523 32.5 36 28.023 36 22.5C36 16.977 31.523 12.5 26 12.5C20.477 12.5 16 16.977 16 22.5C16 24.321 16.487 26.03 17.338 27.5L16.5 32L21 31.162C22.5196 32.0408 24.2445 32.5024 26 32.5Z" stroke="#CACDD3" stroke-width="1.5" stroke-linecap="round" stroke-linejoin="round"/>
<path d="M19.5251 43.2422V54.5283H18.573V43.2422H19.5251ZM17.1511 43.5469V53.957H16.199V48.6885H13.8122C13.1204 50.0024 12.0349 51.1641 10.4607 52.0908L9.8767 51.3672C12.3332 49.9136 13.5647 47.876 13.7488 45.5146H10.3591V44.6895H14.739C14.7327 45.8003 14.5549 46.873 14.1804 47.876H16.199V43.5469H17.1511ZM24.8511 46.2764C24.8384 48.333 26.2476 50.415 27.9106 51.1641L27.3013 51.9512C26.019 51.3228 24.9082 49.9961 24.3687 48.3838C23.8418 50.0913 22.731 51.5132 21.4106 52.1797L20.7759 51.3418C22.4517 50.5674 23.8481 48.4219 23.8608 46.2764V44.2197H24.8511V46.2764ZM30.145 43.2422V54.5537H29.1421V43.2422H30.145ZM38.2639 44.3213V45.1338H37.1087V48.8662C37.6863 48.8281 38.2576 48.7773 38.7971 48.7139L38.8733 49.4629C36.5881 49.8184 33.9221 49.8691 31.9671 49.8691L31.8528 49.0439L33.3128 49.0186V45.1338H32.1702V44.3213H38.2639ZM40.6379 43.2549V46.6826H42.3391V47.5332H40.6379V51.5576H39.6477V43.2549H40.6379ZM41.1585 53.4492V54.2871H33.5794V50.7705H34.5569V53.4492H41.1585ZM34.2903 49.0059C34.8933 48.9868 35.5154 48.9678 36.1311 48.9297V45.1338H34.2903V49.0059Z" fill="#CACDD3"/>
</svg>
