<svg xmlns="http://www.w3.org/2000/svg" width="52" height="60" fill="none"><path fill="#464B53" d="M22.667 17.4h-2.223v2.2h2.223v-2.2Zm4.444 0H24.89v2.2h2.222v-2.2Zm4.445 0h-2.223v2.2h2.223v-2.2Zm2.222-7.7h-1.111V7.5h-2.223v2.2h-8.888V7.5h-2.223v2.2h-1.11c-1.234 0-2.212.99-2.212 2.2L16 27.3c0 .584.234 1.143.65 1.556.418.412.983.644 1.572.644h15.556C35 29.5 36 28.51 36 27.3V11.9c0-1.21-1-2.2-2.222-2.2Zm0 17.6H18.222V15.2h15.556v12.1ZM19.424 39.115v11.578h-1.638V39.115h1.638Zm-6.272.813c1.74 0 3.034 1.6 3.034 4.113 0 2.54-1.295 4.126-3.034 4.126-1.777 0-3.072-1.587-3.06-4.126-.012-2.514 1.283-4.113 3.06-4.113Zm0 1.46c-.901 0-1.498.94-1.498 2.653 0 1.727.597 2.653 1.498 2.653.876 0 1.473-.926 1.473-2.653 0-1.714-.597-2.653-1.473-2.653Zm17.5-2.273v8.735h-1.535v-8.735h1.536Zm-2.348.178v8.188h-1.523V43.61H25.74v2.235H21.13v-5.84h1.537v1.765h1.574v-1.765h1.498v2.31h1.04v-3.021h1.524Zm-5.636 5.243h1.574V43h-1.575v1.536Zm8.277 4.634v1.295H22.82v-3.77h1.625v2.475h6.5Zm10.175-4.088v1.282h-8.175v-6.398h8.087v1.307h-6.437v1.22h6.17v1.269h-6.17v1.32h6.525Zm1.156 2.92v1.32H31.7v-1.32h10.576Z"/></svg>