<svg width="52" height="68" viewBox="0 0 52 68" fill="none" xmlns="http://www.w3.org/2000/svg">
<path d="M33 16.5H19C17.8954 16.5 17 17.3954 17 18.5V28.5C17 30 18 31.5 19.5 31.5H32.5C34 31.5 35 30.5 35 28.5V18.5C35 17.3954 34.1046 16.5 33 16.5Z" stroke="#4AA662" stroke-width="1.5"/>
<path d="M17 21.5C17 19.1425 17 17.965 17.586 17.2325C18.172 16.5 19.114 16.5 21 16.5H31C32.886 16.5 33.828 16.5 34.414 17.2325C35 17.965 35 19.1425 35 21.5H17Z" fill="#4AA662"/>
<path d="M21 13.5V16.5M31 13.5V16.5" stroke="#4AA662" stroke-width="1.5" stroke-linecap="round"/>
<path d="M19.4236 43.1152V54.6934H17.7859V43.1152H19.4236ZM13.1521 43.9277C14.8913 43.9277 16.1863 45.5273 16.1863 48.041C16.1863 50.5801 14.8913 52.167 13.1521 52.167C11.3747 52.167 10.0798 50.5801 10.0925 48.041C10.0798 45.5273 11.3747 43.9277 13.1521 43.9277ZM13.1521 45.3877C12.2507 45.3877 11.654 46.3271 11.654 48.041C11.654 49.7676 12.2507 50.6943 13.1521 50.6943C14.0281 50.6943 14.6247 49.7676 14.6247 48.041C14.6247 46.3271 14.0281 45.3877 13.1521 45.3877ZM30.6528 43.1152V51.8496H29.1167V43.1152H30.6528ZM28.3042 43.293V51.4814H26.7808V47.6094H25.7397V49.8438H21.1313V44.0039H22.6675V45.7686H24.2417V44.0039H25.7397V46.3145H26.7808V43.293H28.3042ZM22.6675 48.5361H24.2417V47H22.6675V48.5361ZM30.9448 53.1699V54.4648H22.8198V50.6943H24.4448V53.1699H30.9448ZM41.1204 49.082V50.3643H32.9446V43.9658H41.0315V45.2734H34.595V46.4922H40.7649V47.7617H34.595V49.082H41.1204ZM42.2756 52.002V53.3223H31.7004V52.002H42.2756Z" fill="#4AA662"/>
</svg>
