<svg width="52" height="68" viewBox="0 0 52 68" fill="none" xmlns="http://www.w3.org/2000/svg">
<path d="M33 16.5H19C17.8954 16.5 17 17.3954 17 18.5V28.5C17 30 18 31.5 19.5 31.5H32.5C34 31.5 35 30.5 35 28.5V18.5C35 17.3954 34.1046 16.5 33 16.5Z" stroke="#CACDD3" stroke-width="1.5"/>
<path d="M17 21.5C17 19.1425 17 17.965 17.586 17.2325C18.172 16.5 19.114 16.5 21 16.5H31C32.886 16.5 33.828 16.5 34.414 17.2325C35 17.965 35 19.1425 35 21.5H17Z" fill="#CACDD3"/>
<path d="M21 13.5V16.5M31 13.5V16.5" stroke="#CACDD3" stroke-width="1.5" stroke-linecap="round"/>
<path d="M19.1697 43.2422V54.5537H18.1667V43.2422H19.1697ZM13.1648 44.1182C14.8406 44.1309 16.0466 45.6543 16.0466 48.0537C16.0466 50.4531 14.8406 51.9766 13.1648 51.9766C11.4763 51.9766 10.2829 50.4531 10.2829 48.0537C10.2829 45.6543 11.4763 44.1309 13.1648 44.1182ZM13.1648 45.0068C12.0349 45.0195 11.2478 46.2129 11.2478 48.0537C11.2478 49.8945 12.0349 51.0879 13.1648 51.0879C14.2947 51.0879 15.0818 49.8945 15.0818 48.0537C15.0818 46.2129 14.2947 45.0195 13.1648 45.0068ZM30.4243 43.2422V51.8242H29.4722V43.2422H30.4243ZM28.2661 43.4707V51.4814H27.314V47.3555H25.7524V49.6787H21.3599V44.1562H22.2993V46.0605H24.813V44.1562H25.7524V46.5303H27.314V43.4707H28.2661ZM22.2993 48.8535H24.813V46.8477H22.2993V48.8535ZM30.7671 53.4492V54.2871H23.0229V50.6689H24.0132V53.4492H30.7671ZM40.9553 49.3486V50.1611H33.1477V44.2197H40.8284V45.0576H34.1633V46.7334H40.5872V47.5332H34.1633V49.3486H40.9553ZM42.1487 52.2305V53.0557H31.8147V52.2305H42.1487Z" fill="#CACDD3"/>
</svg>
