<svg width="52" height="68" viewBox="0 0 52 68" fill="none" xmlns="http://www.w3.org/2000/svg">
<path d="M25.9128 20.5C28.3214 20.5 30.2739 18.5475 30.2739 16.1389C30.2739 13.7304 28.3214 11.7778 25.9128 11.7778C23.5043 11.7778 21.5518 13.7304 21.5518 16.1389C21.5518 18.5475 23.5043 20.5 25.9128 20.5Z" fill="#4AA662"/>
<path fill-rule="evenodd" clip-rule="evenodd" d="M16.0477 29.1577C15.4895 30.3059 16.4438 31.5 17.7204 31.5H34.2789C35.5555 31.5 36.5098 30.3059 35.9516 29.1577C34.32 25.8016 30.9692 23.5 27.1006 23.5H24.8987C21.0301 23.5 17.6793 25.8016 16.0477 29.1577Z" fill="#4AA662"/>
<path d="M18.3475 43.1152V54.668H16.786V48.8916H15.7069V54.1094H14.1835V43.3057H15.7069V47.584H16.786V43.1152H18.3475ZM10.4764 44.3975V50.4277C11.4032 50.4087 12.4188 50.3262 13.536 50.1104L13.701 51.5068C12.1522 51.7734 10.8319 51.8496 9.63853 51.8496H8.85143V44.3975H10.4764ZM31.8304 43.1152V49.9707H30.2181V47.2412H28.4154V45.9336H30.2181V43.1152H31.8304ZM27.8822 50.2246C30.3451 50.2373 31.8558 51.0498 31.8685 52.459C31.8558 53.8555 30.3451 54.6807 27.8822 54.6807C25.4193 54.6807 23.9086 53.8555 23.9086 52.459C23.9086 51.0498 25.4193 50.2373 27.8822 50.2246ZM27.8822 51.4688C26.3461 51.4688 25.5209 51.7861 25.5209 52.459C25.5209 53.1191 26.3461 53.4492 27.8822 53.4492C29.4183 53.4492 30.2562 53.1191 30.2562 52.459C30.2562 51.7861 29.4183 51.4688 27.8822 51.4688ZM28.7582 43.8135V45.1084H26.4603C26.4984 46.4541 27.3109 47.8125 29.1137 48.4092L28.3138 49.6787C27.038 49.2661 26.162 48.4282 25.6605 47.3809C25.1464 48.5615 24.226 49.5137 22.8549 49.9834L22.017 48.7012C23.9149 48.0664 24.7655 46.5557 24.8099 45.1084H22.4867V43.8135H28.7582ZM43.6437 52.002V53.3223H33.0685V52.002H37.5246V49.8691H34.1857V43.8516H35.8107V45.6416H40.8507V43.8516H42.463V49.8691H39.1369V52.002H43.6437ZM35.8107 48.5742H40.8507V46.9365H35.8107V48.5742Z" fill="#4AA662"/>
</svg>
