<svg width="52" height="68" viewBox="0 0 52 68" fill="none" xmlns="http://www.w3.org/2000/svg">
<path fill-rule="evenodd" clip-rule="evenodd" d="M25.9128 12.5278C23.9185 12.5278 22.3018 14.1446 22.3018 16.1389C22.3018 18.1333 23.9185 19.75 25.9128 19.75C27.9072 19.75 29.5239 18.1333 29.5239 16.1389C29.5239 14.1446 27.9072 12.5278 25.9128 12.5278ZM20.8018 16.1389C20.8018 13.3161 23.0901 11.0278 25.9128 11.0278C28.7356 11.0278 31.0239 13.3161 31.0239 16.1389C31.0239 18.9617 28.7356 21.25 25.9128 21.25C23.0901 21.25 20.8018 18.9617 20.8018 16.1389Z" fill="#CACDD3"/>
<path fill-rule="evenodd" clip-rule="evenodd" d="M17.452 30.1126C18.0771 28.8089 19.0553 27.6649 20.3009 26.7906C20.3401 26.763 20.3796 26.7358 20.4194 26.7088C21.9943 25.6393 23.9006 25.0497 25.8661 25.0241C25.8674 25.0241 25.8688 25.0241 25.8701 25.0241C27.837 24.9993 29.7622 25.5406 31.3702 26.5706C31.4099 26.596 31.4493 26.6217 31.4884 26.6476C32.7602 27.4895 33.7731 28.6076 34.4383 29.8943C34.4636 29.9432 34.4883 29.9922 34.5126 30.0416C34.5355 30.0881 34.5618 30.1323 34.5913 30.1737C34.8108 30.4829 35.1998 30.6416 35.5694 30.5268C36.0247 30.3854 36.2699 29.8881 36.0615 29.4593C36.0381 29.4111 36.0143 29.3631 35.9901 29.3153C35.9463 29.229 35.9013 29.1433 35.8549 29.0583C35.0451 27.5732 33.8381 26.288 32.3353 25.3254C32.2958 25.3 32.256 25.2749 32.2161 25.2501C30.3446 24.0846 28.1215 23.473 25.8509 23.5009C25.8496 23.5009 25.8482 23.5009 25.8469 23.501C23.5761 23.5296 21.3719 24.1965 19.5362 25.4083C19.4962 25.4347 19.4563 25.4614 19.4166 25.4884C17.9416 26.49 16.7731 27.8077 16.0089 29.3154C15.9667 29.3988 15.9257 29.4827 15.8859 29.5673C15.8628 29.6164 15.8401 29.6657 15.8178 29.7153C15.6225 30.1495 15.881 30.6389 16.3391 30.7684C16.7134 30.8742 17.0998 30.7039 17.3115 30.3871C17.3399 30.3446 17.3651 30.2995 17.3867 30.2521C17.408 30.2054 17.4298 30.1589 17.452 30.1126Z" fill="#CACDD3"/>
<path d="M19.4997 43.2422V54.5283H18.5222V48.6885H16.8972V53.9443H15.9578V43.4961H16.8972V47.8379H18.5222V43.2422H19.4997ZM11.4255 44.626V50.7197C12.5491 50.707 13.7424 50.6309 15.1199 50.3516L15.2468 51.2402C13.6726 51.5195 12.3777 51.6084 11.1335 51.6084H10.4353V44.626H11.4255ZM30.1958 43.2422V49.9707H29.1929V47.0127H26.9204V46.1875H29.1929V43.2422H30.1958ZM26.4507 50.3262C28.7993 50.3262 30.2339 51.0879 30.2339 52.4209C30.2339 53.7539 28.7993 54.5156 26.4507 54.5283C24.1021 54.5156 22.6675 53.7539 22.6675 52.4209C22.6675 51.0879 24.1021 50.3262 26.4507 50.3262ZM26.4507 51.1006C24.7241 51.1006 23.645 51.5957 23.6577 52.4209C23.645 53.2334 24.7241 53.7285 26.4507 53.7285C28.1772 53.7285 29.2437 53.2334 29.2437 52.4209C29.2437 51.5957 28.1772 51.1006 26.4507 51.1006ZM24.7622 45.3115C24.7622 46.7842 25.8921 48.1807 27.5425 48.752L27.022 49.5518C25.7524 49.0947 24.7686 48.1489 24.2925 46.9746C23.7974 48.3013 22.75 49.3613 21.4106 49.8691L20.8901 49.0693C22.5659 48.46 23.7593 46.9365 23.7593 45.3242V44.9053H21.2075V44.0674H27.2886V44.9053H24.7622V45.3115ZM42.1487 52.2559V53.0811H31.8147V52.2559H36.4612V49.8184H33.0335V44.042H34.0364V46.0859H39.9016V44.042H40.8792V49.8184H37.4387V52.2559H42.1487ZM34.0364 49.0059H39.9016V46.8984H34.0364V49.0059Z" fill="#CACDD3"/>
</svg>
