<svg xmlns="http://www.w3.org/2000/svg" width="52" height="60" fill="none"><circle cx="26" cy="18" r="9" fill="#67BB7D"/><path fill="#464B53" fill-rule="evenodd" d="M29.977 15.454a3.727 3.727 0 1 1-7.454 0 3.727 3.727 0 0 1 7.454 0Zm-1.864 0a1.864 1.864 0 1 1-3.727 0 1.864 1.864 0 0 1 3.727 0Z" clip-rule="evenodd"/><path fill="#464B53" fill-rule="evenodd" d="M26.25 8C20.59 8 16 12.59 16 18.25S20.59 28.5 26.25 28.5 36.5 23.91 36.5 18.25 31.91 8 26.25 8Zm-8.386 10.25c0 1.948.664 3.74 1.777 5.164a8.378 8.378 0 0 1 6.67-3.3 8.369 8.369 0 0 1 6.608 3.222 8.387 8.387 0 1 0-15.055-5.086Zm8.386 8.386a8.349 8.349 0 0 1-5.285-1.874 6.514 6.514 0 0 1 5.346-2.785 6.514 6.514 0 0 1 5.3 2.721 8.35 8.35 0 0 1-5.361 1.938Z" clip-rule="evenodd"/><path fill="#464B53" d="M19.716 39.115v11.553h-1.562v-5.776h-1.08v5.217h-1.523V39.306h1.524v4.278h1.079v-4.469h1.562Zm-7.872 1.282v6.03a17.894 17.894 0 0 0 3.06-.317l.165 1.397c-1.549.266-2.87.343-4.062.343h-.787v-7.453h1.624Zm18.618-1.282v6.856H28.85v-2.73h-1.803v-1.307h1.803v-2.819h1.612Zm-3.948 7.11c2.463.012 3.974.825 3.986 2.234-.012 1.396-1.523 2.222-3.986 2.222s-3.973-.825-3.973-2.222c0-1.41 1.51-2.222 3.973-2.234Zm0 1.244c-1.536 0-2.361.317-2.361.99 0 .66.825.99 2.361.99 1.536 0 2.374-.33 2.374-.99 0-.673-.838-.99-2.374-.99Zm.876-7.656v1.295h-2.298c.038 1.346.85 2.705 2.654 3.301l-.8 1.27c-1.276-.413-2.152-1.25-2.654-2.298-.514 1.18-1.434 2.133-2.805 2.602l-.838-1.282c1.898-.635 2.748-2.145 2.793-3.593h-2.323v-1.294h6.271Zm14.886 8.189v1.32H31.7v-1.32h4.457v-2.133h-3.34v-6.017h1.626v1.79h5.04v-1.79h1.612v6.017h-3.326v2.133h4.507Zm-7.833-3.428h5.04v-1.637h-5.04v1.637Z"/></svg>