<svg xmlns="http://www.w3.org/2000/svg" width="44" height="44" fill="none" viewBox="0 0 44 44"><g filter="url(#a)"><rect width="36" height="36" x="4" fill="#4AA662" rx="18"/><rect width="33" height="33" x="5.5" y="1.5" stroke="#fff" stroke-width="3" rx="16.5"/><path fill="#fff" fill-rule="evenodd" d="M17.5 24.73v-4.958l9.179-3.06.039-.013c.235-.078.478-.159.658-.247.127-.061.624-.308.624-.886 0-.578-.497-.824-.624-.886-.18-.087-.423-.168-.658-.246l-.039-.013-9.089-3.03-.026-.01a2.966 2.966 0 0 0-.401-.112.975.975 0 0 0-.756.156.976.976 0 0 0-.387.668c-.02.137-.02.298-.02.417v12.219a.75.75 0 0 0 1.5 0Z" clip-rule="evenodd"/></g><defs><filter id="a" width="44" height="44" x="0" y="0" color-interpolation-filters="sRGB" filterUnits="userSpaceOnUse"><feFlood flood-opacity="0" result="BackgroundImageFix"/><feColorMatrix in="SourceAlpha" result="hardAlpha" values="0 0 0 0 0 0 0 0 0 0 0 0 0 0 0 0 0 0 127 0"/><feOffset dy="4"/><feGaussianBlur stdDeviation="2"/><feComposite in2="hardAlpha" operator="out"/><feColorMatrix values="0 0 0 0 0 0 0 0 0 0 0 0 0 0 0 0 0 0 0.1 0"/><feBlend in2="BackgroundImageFix" result="effect1_dropShadow_643_14077"/><feBlend in="SourceGraphic" in2="effect1_dropShadow_643_14077" result="shape"/></filter></defs></svg>