<svg xmlns="http://www.w3.org/2000/svg" width="24" height="24" fill="none" viewBox="0 0 24 24"><path fill="#464B53" d="M18.111 12a1.667 1.667 0 1 1 0-3.333 1.667 1.667 0 0 1 0 3.333Zm-3.333-4.444a1.667 1.667 0 1 1 0-3.334 1.667 1.667 0 0 1 0 3.334Zm-5.556 0a1.667 1.667 0 1 1 0-3.334 1.667 1.667 0 0 1 0 3.334ZM5.89 12a1.667 1.667 0 1 1 0-3.333 1.667 1.667 0 0 1 0 3.333ZM12 2a10 10 0 0 0 0 20 1.666 1.666 0 0 0 1.667-1.667c0-.433-.167-.822-.434-1.11a1.721 1.721 0 0 1-.422-1.112 1.667 1.667 0 0 1 1.667-1.667h1.966A5.556 5.556 0 0 0 22 10.89C22 5.978 17.522 2 12 2Z"/></svg>