<svg xmlns="http://www.w3.org/2000/svg" width="32" height="32" fill="none" viewBox="0 0 32 32"><path fill="#464B53" fill-rule="evenodd" d="M10.54 6.753C10.873 5.141 12.319 4 13.974 4h4.053c1.656 0 3.1 1.14 3.433 2.753a.817.817 0 0 0 .769.645h.041c1.74.076 3.077.288 4.194 1.016a6.362 6.362 0 0 1 1.78 1.734c.586.854.844 1.836.968 3.023.122 1.16.122 2.614.122 4.455v.104c0 1.842 0 3.296-.122 4.456-.124 1.186-.382 2.169-.969 3.024a6.426 6.426 0 0 1-1.78 1.734c-.871.567-1.872.819-3.085.938C22.189 28 20.7 28 18.808 28h-5.614c-1.893 0-3.383 0-4.571-.118-1.213-.12-2.214-.37-3.086-.938a6.427 6.427 0 0 1-1.78-1.735c-.586-.854-.844-1.837-.968-3.023-.122-1.16-.122-2.614-.122-4.456v-.104c0-1.841 0-3.295.122-4.456.124-1.186.382-2.168.968-3.022a6.426 6.426 0 0 1 1.78-1.736C6.653 7.686 7.99 7.474 9.731 7.4h.04a.817.817 0 0 0 .77-.646Zm3.434-.907c-.794 0-1.46.545-1.61 1.275-.242 1.182-1.299 2.112-2.57 2.123-1.672.074-2.568.277-3.237.713a4.574 4.574 0 0 0-1.262 1.23c-.342.498-.548 1.137-.657 2.174-.11 1.054-.11 2.412-.11 4.318 0 1.905 0 3.263.111 4.316.108 1.038.314 1.676.657 2.176.333.485.76.904 1.262 1.23.517.336 1.18.539 2.25.645 1.084.107 2.48.108 4.436.108h5.512c1.955 0 3.352 0 4.437-.108 1.07-.106 1.733-.308 2.25-.645.5-.326.93-.745 1.262-1.231.343-.499.549-1.137.658-2.175.109-1.053.11-2.412.11-4.316s0-3.264-.111-4.318c-.108-1.037-.314-1.676-.658-2.175a4.572 4.572 0 0 0-1.261-1.23c-.668-.435-1.563-.638-3.237-.712-1.27-.012-2.327-.94-2.57-2.123a1.616 1.616 0 0 0-.575-.922 1.638 1.638 0 0 0-1.034-.353h-4.053ZM16 14.461c-.74 0-1.45.292-1.973.812a2.758 2.758 0 0 0 0 3.916 2.802 2.802 0 0 0 3.947 0 2.758 2.758 0 0 0 0-3.916A2.802 2.802 0 0 0 16 14.46Zm-4.65 2.77c0-1.224.49-2.398 1.361-3.264a4.67 4.67 0 0 1 3.29-1.352 4.67 4.67 0 0 1 3.288 1.352 4.597 4.597 0 0 1 1.362 3.264c0 1.224-.49 2.398-1.362 3.263A4.67 4.67 0 0 1 16 21.846a4.67 4.67 0 0 1-3.289-1.352 4.597 4.597 0 0 1-1.362-3.263Z" clip-rule="evenodd"/></svg>