<svg width="24" height="24" viewBox="0 0 24 24" fill="none" xmlns="http://www.w3.org/2000/svg">
<path fill-rule="evenodd" clip-rule="evenodd" d="M12 2C6.47721 2 2 6.47721 2 12C2 13.7265 2.43814 15.3535 3.2093 16.7721L2.47721 20.7098C2.45661 20.821 2.46338 20.9356 2.49695 21.0437C2.53052 21.1518 2.58988 21.2501 2.6699 21.3301C2.74992 21.4101 2.8482 21.4695 2.95627 21.503C3.06434 21.5366 3.17896 21.5434 3.29023 21.5228L7.2279 20.7898C8.69216 21.5864 10.3331 22.0025 12 22C17.5228 22 22 17.5228 22 12C22 6.47721 17.5228 2 12 2ZM16.6512 10.8372C16.3428 10.8372 16.047 10.9597 15.8289 11.1778C15.6109 11.3958 15.4884 11.6916 15.4884 12C15.4884 12.3084 15.6109 12.6041 15.8289 12.8222C16.047 13.0403 16.3428 13.1628 16.6512 13.1628C16.9595 13.1628 17.2553 13.0403 17.4734 12.8222C17.6914 12.6041 17.8139 12.3084 17.8139 12C17.8139 11.6916 17.6914 11.3958 17.4734 11.1778C17.2553 10.9597 16.9595 10.8372 16.6512 10.8372ZM10.8372 12C10.8372 11.6916 10.9597 11.3958 11.1778 11.1778C11.3958 10.9597 11.6916 10.8372 12 10.8372C12.3084 10.8372 12.6041 10.9597 12.8222 11.1778C13.0403 11.3958 13.1628 11.6916 13.1628 12C13.1628 12.3084 13.0403 12.6041 12.8222 12.8222C12.6041 13.0403 12.3084 13.1628 12 13.1628C11.6916 13.1628 11.3958 13.0403 11.1778 12.8222C10.9597 12.6041 10.8372 12.3084 10.8372 12ZM7.34883 10.8372C7.04044 10.8372 6.74468 10.9597 6.52662 11.1778C6.30855 11.3958 6.18604 11.6916 6.18604 12C6.18604 12.3084 6.30855 12.6041 6.52662 12.8222C6.74468 13.0403 7.04044 13.1628 7.34883 13.1628C7.65722 13.1628 7.95298 13.0403 8.17105 12.8222C8.38912 12.6041 8.51162 12.3084 8.51162 12C8.51162 11.6916 8.38912 11.3958 8.17105 11.1778C7.95298 10.9597 7.65722 10.8372 7.34883 10.8372Z" fill="#464B53"/>
</svg>
