<svg xmlns="http://www.w3.org/2000/svg" width="44" height="44" fill="none" viewBox="0 0 44 44"><g filter="url(#a)"><rect width="36" height="36" x="4" fill="#4AA662" rx="18"/><rect width="33" height="33" x="5.5" y="1.5" stroke="#fff" stroke-width="3" rx="16.5"/><path fill="#fff" d="M26.583 18a1.25 1.25 0 1 1 0-2.5 1.25 1.25 0 0 1 0 2.5Zm-2.5-3.333a1.25 1.25 0 1 1 0-2.5 1.25 1.25 0 0 1 0 2.5Zm-4.166 0a1.25 1.25 0 1 1 0-2.5 1.25 1.25 0 0 1 0 2.5ZM17.417 18a1.25 1.25 0 1 1 0-2.5 1.25 1.25 0 0 1 0 2.5ZM22 10.5a7.5 7.5 0 0 0 0 15 1.25 1.25 0 0 0 1.25-1.25c0-.325-.125-.617-.325-.833a1.25 1.25 0 0 1 .933-2.083h1.475a4.167 4.167 0 0 0 4.167-4.167c0-3.684-3.358-6.667-7.5-6.667Z"/></g><defs><filter id="a" width="44" height="44" x="0" y="0" color-interpolation-filters="sRGB" filterUnits="userSpaceOnUse"><feFlood flood-opacity="0" result="BackgroundImageFix"/><feColorMatrix in="SourceAlpha" result="hardAlpha" values="0 0 0 0 0 0 0 0 0 0 0 0 0 0 0 0 0 0 127 0"/><feOffset dy="4"/><feGaussianBlur stdDeviation="2"/><feComposite in2="hardAlpha" operator="out"/><feColorMatrix values="0 0 0 0 0 0 0 0 0 0 0 0 0 0 0 0 0 0 0.1 0"/><feBlend in2="BackgroundImageFix" result="effect1_dropShadow_643_14116"/><feBlend in="SourceGraphic" in2="effect1_dropShadow_643_14116" result="shape"/></filter></defs></svg>