<svg xmlns="http://www.w3.org/2000/svg" width="24" height="24" fill="none" viewBox="0 0 24 24"><path fill="#464B53" d="M8.625 4.224c-.298 0-.585.117-.795.326a1.104 1.104 0 0 0 0 1.57 1.132 1.132 0 0 0 1.59 0 1.104 1.104 0 0 0 0-1.57 1.132 1.132 0 0 0-.795-.326Zm-3.184 0a3.338 3.338 0 0 1 1.234-1.612 3.406 3.406 0 0 1 3.9 0c.57.399 1.001.962 1.234 1.612h8.066c.298 0 .584.117.796.326a1.104 1.104 0 0 1 0 1.57 1.132 1.132 0 0 1-.796.326h-8.066a3.338 3.338 0 0 1-1.234 1.612 3.406 3.406 0 0 1-3.9 0A3.338 3.338 0 0 1 5.44 6.446H4.125c-.298 0-.585-.117-.795-.325a1.104 1.104 0 0 1 0-1.571c.21-.209.497-.326.795-.326h1.316Zm9.934 6.665c-.298 0-.585.117-.796.325a1.104 1.104 0 0 0 0 1.572 1.132 1.132 0 0 0 1.591 0 1.104 1.104 0 0 0 0-1.572 1.132 1.132 0 0 0-.795-.325Zm-3.184 0a3.339 3.339 0 0 1 1.234-1.612 3.406 3.406 0 0 1 3.9 0c.57.399 1.001.962 1.234 1.612h1.316c.298 0 .584.117.796.325a1.104 1.104 0 0 1 0 1.572 1.132 1.132 0 0 1-.796.325h-1.316a3.339 3.339 0 0 1-1.234 1.612 3.406 3.406 0 0 1-3.9 0 3.339 3.339 0 0 1-1.234-1.612H4.125c-.298 0-.585-.117-.795-.325a1.104 1.104 0 0 1 0-1.572c.21-.208.497-.325.795-.325h8.066Zm-3.566 6.665c-.298 0-.585.117-.795.325a1.104 1.104 0 0 0 0 1.571 1.132 1.132 0 0 0 1.59 0 1.104 1.104 0 0 0 0-1.57 1.132 1.132 0 0 0-.795-.326Zm-3.184 0a3.338 3.338 0 0 1 1.234-1.612 3.406 3.406 0 0 1 3.9 0c.57.398 1.001.962 1.234 1.612h8.066c.298 0 .584.117.796.325a1.104 1.104 0 0 1 0 1.571 1.132 1.132 0 0 1-.796.326h-8.066a3.338 3.338 0 0 1-1.234 1.612 3.406 3.406 0 0 1-3.9 0 3.338 3.338 0 0 1-1.234-1.612H4.125c-.298 0-.585-.117-.795-.326a1.104 1.104 0 0 1 0-1.57c.21-.209.497-.326.795-.326h1.316Z"/></svg>