<svg xmlns="http://www.w3.org/2000/svg" width="40" height="40" fill="none" viewBox="0 0 40 40"><rect width="40" height="40" fill="#F9E000" rx="20"/><path fill="#3A1C1C" d="M20 10.25c6.283 0 11.376 3.97 11.376 8.867s-5.093 8.866-11.375 8.866c-.626-.001-1.25-.04-1.87-.12l-4.776 3.124c-.543.287-.735.256-.512-.447l.967-3.985c-3.12-1.581-5.184-4.322-5.184-7.438 0-4.897 5.092-8.867 11.375-8.867m6.4 8.732 1.593-1.543a.511.511 0 0 0-.71-.735l-2.09 2.022v-1.67a.511.511 0 0 0-1.022 0v2.77a.542.542 0 0 0 0 .24v1.559a.511.511 0 0 0 1.023 0v-1.477l.462-.447 1.547 2.202a.513.513 0 0 0 .837-.588l-1.64-2.333Zm-3.204 2.084h-1.582v-3.994a.511.511 0 0 0-1.021 0v4.505a.51.51 0 0 0 .51.512h2.093a.511.511 0 0 0 0-1.023Zm-6.345-1.182.754-1.85.69 1.849-1.444.001Zm2.733.528.002-.018a.509.509 0 0 0-.137-.346l-1.134-3.034a.748.748 0 0 0-.679-.513.76.76 0 0 0-.707.484l-1.8 4.415a.511.511 0 1 0 .946.386l.36-.88h2.242l.323.866a.511.511 0 1 0 .958-.357l-.374-1.003Zm-3.6-3.335a.51.51 0 0 0-.51-.511h-3.516a.511.511 0 0 0 0 1.023h1.257v4.047a.511.511 0 1 0 1.023 0v-4.047h1.235a.508.508 0 0 0 .511-.512Z"/></svg>