<svg width="24" height="24" viewBox="0 0 24 24" fill="none" xmlns="http://www.w3.org/2000/svg">
<path d="M8 6.63904V20.5" stroke="#464B53" stroke-width="1.5"/>
<path d="M20 11.5C20 10.458 20 5.59703 19.717 5.20403C19.434 4.81103 18.939 4.64603 17.949 4.31603L16.784 3.92803C15.417 3.47203 14.733 3.24403 14.045 3.33703C13.357 3.42803 12.758 3.82803 11.558 4.62803L10.176 5.55003C9.24 6.17303 8.772 6.48503 8.247 6.61003C8.05406 6.65539 7.8571 6.68152 7.659 6.68803C7.119 6.70703 6.586 6.52903 5.519 6.17303C4.121 5.70703 3.422 5.47403 2.89 5.71003C2.70129 5.79449 2.53209 5.91706 2.393 6.07003C2 6.50003 2 7.23603 2 8.71003V16.838C2 17.88 2 18.403 2.283 18.796C2.566 19.189 3.061 19.354 4.051 19.684L5.216 20.072C6.583 20.528 7.267 20.756 7.955 20.663C8.643 20.572 9.242 20.172 10.442 19.372L11.824 18.45" stroke="#464B53" stroke-width="1.5" stroke-linecap="round"/>
<path d="M17.4737 19.9526C18.1616 19.9533 18.8343 19.7501 19.4069 19.3688C19.9794 18.9874 20.4261 18.4449 20.6906 17.8099C20.9549 17.1748 21.0246 16.4754 20.8909 15.8006C20.7572 15.1258 20.426 14.5059 19.9395 14.0195C19.4532 13.533 18.8336 13.2016 18.159 13.0671C17.4844 12.9327 16.7851 13.0012 16.1494 13.2641C15.5138 13.5269 14.9703 13.9724 14.5877 14.544C14.2052 15.1157 14.0006 15.7879 14 16.4758C14 17.3973 14.3658 18.2808 15.0171 18.9325C15.6685 19.5842 16.5518 19.9511 17.4733 19.9526M19.9408 18.942L22 21" stroke="#464B53" stroke-width="1.5" stroke-linecap="round" stroke-linejoin="round"/>
<path d="M13.75 11C13.75 11.4142 14.0858 11.75 14.5 11.75C14.9142 11.75 15.25 11.4142 15.25 11H13.75ZM13.75 3V11H15.25V3H13.75Z" fill="#464B53"/>
</svg>
