<svg xmlns="http://www.w3.org/2000/svg" width="28" height="28" fill="none" viewBox="0 0 28 28"><path fill="#464B53" d="M12.833 25.608v-1.166c-2.43-.273-4.516-1.279-6.257-3.018-1.74-1.74-2.747-3.826-3.018-6.257H2.391c-.33 0-.607-.112-.83-.336a1.134 1.134 0 0 1-.336-.83c-.001-.33.11-.608.336-.832a1.13 1.13 0 0 1 .83-.336h1.167c.272-2.43 1.279-4.516 3.02-6.256 1.74-1.741 3.825-2.747 6.255-3.019V2.392c0-.33.112-.608.336-.83.224-.224.5-.336.83-.337.33 0 .608.111.832.336.225.225.337.502.335.83v1.167c2.43.273 4.516 1.28 6.257 3.02 1.74 1.74 2.747 3.826 3.018 6.255h1.167c.33 0 .608.112.832.336.224.224.335.501.335.831-.001.33-.113.607-.335.832-.223.225-.5.336-.832.335H24.44c-.272 2.43-1.278 4.516-3.018 6.257-1.74 1.74-3.825 2.746-6.257 3.018v1.166c0 .331-.112.608-.336.832-.224.224-.5.336-.83.335-.33 0-.607-.112-.831-.335a1.125 1.125 0 0 1-.336-.832ZM14 22.167c2.255 0 4.18-.798 5.775-2.392 1.594-1.594 2.391-3.52 2.391-5.775 0-2.255-.797-4.18-2.391-5.775C18.18 6.631 16.255 5.833 14 5.833c-2.256 0-4.18.798-5.775 2.392C6.63 9.82 5.833 11.745 5.833 14c0 2.256.797 4.18 2.392 5.775 1.594 1.595 3.52 2.392 5.775 2.392Zm0-3.5c-1.284 0-2.382-.457-3.296-1.371-.914-.914-1.371-2.013-1.371-3.296s.457-2.382 1.37-3.296c.915-.914 2.013-1.37 3.297-1.37 1.283 0 2.382.456 3.295 1.37.914.914 1.371 2.013 1.371 3.296s-.457 2.382-1.37 3.296c-.914.914-2.013 1.37-3.296 1.37Z"/></svg>