<svg xmlns="http://www.w3.org/2000/svg" width="24" height="24" fill="none" viewBox="0 0 24 24"><path fill="#FFAA06" d="M12 2.095c-6.627 0-12 4.606-12 10.286 0 .71.084 1.404.245 2.074C1.43 16.496 2.25 15.208 6 13.333 9.818 11.424 6 16 4.667 18.667c-.41.82-.188 1.514.373 2.082 1.964 1.203 4.363 1.918 6.96 1.918 6.627 0 12-4.605 12-10.286C24 6.7 18.627 2.095 12 2.095Zm1.9 16.298c-.264.898-1.64 1.283-3.076.861-1.435-.421-2.385-1.49-2.122-2.387.263-.898 1.64-1.283 3.075-.86 1.436.42 2.386 1.488 2.122 2.386Z"/><path fill="#5C913B" d="M6.667 9.333a2 2 0 1 0 0-4 2 2 0 0 0 0 4Z"/><path fill="#269" d="M13.334 8a2 2 0 1 0 0-4 2 2 0 0 0 0 4Z"/><path fill="#DD2E44" d="M19.334 12a2 2 0 1 0 0-4 2 2 0 0 0 0 4Z"/><path fill="#FFCC4D" d="M18.666 18a2 2 0 1 0 0-4 2 2 0 0 0 0 4Z"/></svg>