<svg width="83" height="22" viewBox="0 0 83 22" fill="none" xmlns="http://www.w3.org/2000/svg">
<path d="M62.8057 0.132324H66.6917V18.1564H62.8057V0.132324Z" fill="black"/>
<path d="M23.2536 18.3786C21.854 18.3786 20.5975 18.0536 19.484 17.4036C18.3705 16.7535 17.5005 15.8778 16.8742 14.7765C16.2556 13.6753 15.9463 12.4746 15.9463 11.1744C15.9463 9.85901 16.2401 8.65065 16.8278 7.54937C17.4232 6.44044 18.2506 5.56095 19.31 4.91088C20.3693 4.25317 21.5718 3.92432 22.9172 3.92432C24.371 3.92432 25.6314 4.23405 26.6985 4.85352C27.7656 5.473 28.5775 6.32955 29.1343 7.42318C29.6987 8.51682 29.981 9.75958 29.981 11.1515C29.981 11.4574 29.9655 11.7595 29.9346 12.0577C29.919 12.2005 29.8434 12.4822 29.8434 12.4822C29.8434 12.4822 29.5931 12.4822 29.4474 12.4822H19.9943C20.2495 13.247 20.6864 13.8435 21.305 14.2718C21.9236 14.7001 22.6273 14.9142 23.416 14.9142C23.9186 14.9142 24.371 14.8454 24.7731 14.7077C25.1829 14.5624 25.5148 14.3925 25.9015 14.1249C26.002 14.0484 26.3705 13.7935 26.3705 13.7935C26.3705 13.7935 26.672 14.2523 26.7725 14.3899L27.3755 15.1851C28.0455 16.1128 28.3135 16.5104 28.3135 16.5104C28.3135 16.5104 28.0749 16.7191 27.9512 16.8185C27.3094 17.3156 26.5902 17.7018 25.7938 17.9771C25.005 18.2448 24.1583 18.3786 23.2536 18.3786ZM26.0837 9.61428C25.8672 8.85714 25.4961 8.27591 24.9703 7.87058C24.4444 7.46525 23.8026 7.26258 23.0448 7.26258C22.3025 7.26258 21.6568 7.46907 21.1078 7.88205C20.5665 8.29503 20.1838 8.87244 19.9595 9.61428H26.0837Z" fill="black"/>
<path d="M38.529 18.3786C37.1294 18.3786 35.8728 18.0536 34.7594 17.4036C33.6459 16.7535 32.7759 15.8778 32.1496 14.7765C31.531 13.6753 31.2217 12.4746 31.2217 11.1744C31.2217 9.85901 31.5155 8.65065 32.1032 7.54937C32.6986 6.44044 33.526 5.56095 34.5854 4.91088C35.6447 4.25317 36.8472 3.92432 38.1926 3.92432C39.6464 3.92432 40.9068 4.23405 41.9739 4.85352C43.041 5.473 43.8529 6.32955 44.4097 7.42318C44.9741 8.51682 45.2564 9.75958 45.2564 11.1515C45.2564 11.4574 45.2409 11.7595 45.21 12.0577C45.1944 12.2005 45.1188 12.4822 45.1188 12.4822C45.1188 12.4822 44.8685 12.4822 44.7228 12.4822H35.2697C35.5249 13.247 35.9618 13.8435 36.5804 14.2718C37.199 14.7001 37.9027 14.9142 38.6914 14.9142C39.194 14.9142 39.6464 14.8454 40.0485 14.7077C40.4583 14.5624 40.7902 14.3925 41.1769 14.1249C41.2774 14.0484 41.6459 13.7935 41.6459 13.7935C41.6459 13.7935 41.9473 14.2523 42.0479 14.3899L42.6509 15.1851C43.3209 16.1128 43.5889 16.5104 43.5889 16.5104C43.5889 16.5104 43.3503 16.7191 43.2266 16.8185C42.5848 17.3156 41.8656 17.7018 41.0692 17.9771C40.2804 18.2448 39.4337 18.3786 38.529 18.3786ZM41.3591 9.61428C41.1426 8.85714 40.7715 8.27591 40.2456 7.87058C39.7198 7.46525 39.078 7.26258 38.3202 7.26258C37.5779 7.26258 36.9322 7.46907 36.3832 7.88205C35.8419 8.29503 35.4592 8.87244 35.2349 9.61428H41.3591Z" fill="black"/>
<path d="M75.7722 18.3786C74.3726 18.3786 73.116 18.0536 72.0025 17.4036C70.889 16.7535 70.0191 15.8778 69.3928 14.7765C68.7741 13.6753 68.4648 12.4746 68.4648 11.1744C68.4648 9.85901 68.7587 8.65065 69.3464 7.54937C69.9418 6.44044 70.7692 5.56095 71.8285 4.91088C72.8879 4.25317 74.0903 3.92432 75.4358 3.92432C76.8895 3.92432 78.1499 4.23405 79.217 4.85352C80.2841 5.473 81.0961 6.32955 81.6528 7.42318C82.2173 8.51682 82.4995 9.75958 82.4995 11.1515C82.4995 11.4574 82.4841 11.7595 82.4531 12.0577C82.4375 12.2005 82.3619 12.4822 82.3619 12.4822C82.3619 12.4822 82.1116 12.4822 81.966 12.4822H72.5129C72.768 13.247 73.2049 13.8435 73.8235 14.2718C74.4422 14.7001 75.1458 14.9142 75.9346 14.9142C76.4372 14.9142 76.8895 14.8454 77.2916 14.7077C77.7015 14.5624 78.0334 14.3925 78.42 14.1249C78.5206 14.0484 78.889 13.7935 78.889 13.7935C78.889 13.7935 79.1905 14.2523 79.291 14.3899L79.894 15.1851C80.564 16.1128 80.832 16.5104 80.832 16.5104C80.832 16.5104 80.5935 16.7191 80.4697 16.8185C79.8279 17.3156 79.1088 17.7018 78.3123 17.9771C77.5236 18.2448 76.6769 18.3786 75.7722 18.3786ZM78.6023 9.61428C78.3858 8.85714 78.0146 8.27591 77.4888 7.87058C76.963 7.46525 76.3212 7.26258 75.5634 7.26258C74.8211 7.26258 74.1754 7.46907 73.6264 7.88205C73.0851 8.29503 72.7023 8.87244 72.4781 9.61428H78.6023Z" fill="black"/>
<path fill-rule="evenodd" clip-rule="evenodd" d="M14.606 11.0662C14.606 15.0552 11.3363 18.289 7.303 18.289C6.06851 18.289 4.90556 17.9861 3.886 17.4513V21.9999H0V11.1324H0.000300957C0.000100461 11.1104 0 11.0883 0 11.0662C0 7.07706 3.26966 3.84326 7.303 3.84326C11.3363 3.84326 14.606 7.07706 14.606 11.0662ZM10.854 11.0662C10.854 13.0058 9.26416 14.5782 7.303 14.5782C5.34184 14.5782 3.752 13.0058 3.752 11.0662C3.752 9.1265 5.34184 7.5541 7.303 7.5541C9.26416 7.5541 10.854 9.1265 10.854 11.0662Z" fill="black"/>
<path fill-rule="evenodd" clip-rule="evenodd" d="M46.7969 0H50.6829V11.4083C50.9141 11.3984 51.1442 11.3873 51.371 11.3749C51.498 11.368 51.6235 11.3607 51.7472 11.353C51.6698 10.8129 51.6486 10.2428 51.6922 9.64268C51.8742 7.13804 52.9007 5.16101 54.456 4.11927C56.0662 3.04069 58.2046 3.0773 59.6228 4.67079C61.0177 6.238 60.8099 8.40299 60.094 10.0116C59.4613 11.4334 58.3015 12.7907 56.7394 13.6526C57.611 14.3585 58.7441 14.8915 59.9385 15.2438L58.9812 18.4189C57.2548 17.9097 55.3774 17.029 53.9473 15.6181C53.6224 15.2975 53.3222 14.9507 53.0537 14.5777C52.5743 14.6206 52.0675 14.6552 51.5555 14.6831C51.2676 14.6988 50.9755 14.7126 50.6829 14.7246V18.0241H46.7969V14.7993V11.4861V0ZM57.0279 8.6769C56.6585 9.50682 55.9594 10.3052 55.0515 10.7892C55.0172 10.5035 55.0103 10.201 55.0336 9.88016C55.1643 8.08138 55.8574 7.18214 56.3345 6.8626C56.7565 6.57989 56.9632 6.69697 57.1083 6.85999C57.2767 7.04927 57.4845 7.65077 57.0279 8.6769Z" fill="black"/>
</svg>
