<svg xmlns="http://www.w3.org/2000/svg" width="22" height="22" fill="none" viewBox="0 0 22 22"><g fill="currentColor" fill-rule="evenodd" clip-path="url(#a)" clip-rule="evenodd"><path d="M14.667 8.25a3.667 3.667 0 1 1-7.334 0 3.667 3.667 0 0 1 7.334 0Zm-1.833 0a1.833 1.833 0 1 1-3.667 0 1.833 1.833 0 0 1 3.667 0Z"/><path d="M11 .917C5.431.917.917 5.43.917 11S5.43 21.083 11 21.083 21.083 16.57 21.083 11 16.57.917 11 .917ZM2.75 11c0 1.916.654 3.68 1.75 5.08a8.241 8.241 0 0 1 6.56-3.247 8.233 8.233 0 0 1 6.5 3.17A8.25 8.25 0 1 0 2.75 11ZM11 19.25a8.213 8.213 0 0 1-5.2-1.844 6.408 6.408 0 0 1 5.26-2.74 6.407 6.407 0 0 1 5.215 2.677A8.213 8.213 0 0 1 11 19.25Z"/></g><defs><clipPath id="a"><path fill="#fff" d="M0 0h22v22H0z"/></clipPath></defs></svg>