<svg xmlns="http://www.w3.org/2000/svg" width="20" height="21" fill="none"><path fill="currentColor" d="M11.25 7.792a.625.625 0 1 0-1.25 0v2.035c0 .934.492 1.798 1.295 2.275l1.767 1.049a.587.587 0 0 0 .6-1.01l-1.355-.804a2.162 2.162 0 0 1-1.057-1.859V7.792ZM10.833 3a7.5 7.5 0 0 0-7.464 6.763c-.04.405-.367.737-.775.737a.739.739 0 0 0-.526 1.256l1.085 1.105c.54.55 1.424.554 1.97.01l1.124-1.122a.731.731 0 0 0-.516-1.249c-.404 0-.736-.329-.686-.73a5.833 5.833 0 1 1 5.788 6.563 5.776 5.776 0 0 1-3.484-1.164c-.37-.28-.9-.286-1.227.042-.326.326-.33.858.029 1.147A7.418 7.418 0 0 0 10.833 18a7.5 7.5 0 0 0 0-15Z"/></svg>