<svg xmlns="http://www.w3.org/2000/svg" width="78" height="78" fill="none" viewBox="0 0 78 78"><rect width="78" height="78" fill="#F6F8FA" rx="39"/><path fill="#CACDD3" d="M54.62 38.28c1.12.92 2.76.84 3.78-.18 1.18-1.18 1.1-3.14-.2-4.2-7.18-5.88-16.4-8.06-25.1-6.52l5.18 5.18c5.78-.06 11.6 1.84 16.34 5.72Zm-4.54 3.66c-1.56-1.14-3.26-2-5.04-2.6l5.9 5.9c.48-1.16.2-2.54-.86-3.3Zm-7.68 8.52a8.56 8.56 0 0 0-7.82 0c-1.18.62-1.4 2.24-.46 3.18l2.94 2.94c.78.78 2.04.78 2.82 0l2.94-2.94c.98-.94.78-2.56-.42-3.18Zm11.46 3.34L22.74 22.68a1.994 1.994 0 0 0-2.82 2.82l4.68 4.7c-2.02 1-3.98 2.22-5.78 3.7a2.841 2.841 0 0 0-.2 4.2c1.02 1.02 2.64 1.12 3.74.2 2-1.64 4.2-2.92 6.5-3.86l4.46 4.46c-2.26.6-4.42 1.6-6.38 3.02-1.38 1-1.46 3.02-.26 4.22l.02.02c.98.98 2.52 1.08 3.66.26a14.28 14.28 0 0 1 7.94-2.58l12.74 12.74c.78.78 2.04.78 2.82 0 .78-.74.78-2 0-2.78Z"/></svg>