<svg xmlns="http://www.w3.org/2000/svg" width="200" height="200" fill="none" viewBox="0 0 200 200"><path fill="#0B190F" fill-rule="evenodd" d="M146.551 46.818a14.847 14.847 0 0 0 4.274 2.045c11.043 3.255 19.089 13.58 19.089 25.766 0 12.187-8.046 22.511-19.089 25.766-7.52 2.217-12.102 9.955-10.414 17.741.402 1.851.616 3.785.616 5.786 0 14.82-11.88 26.833-26.535 26.833-7.048 0-13.428-2.759-18.19-7.296a14.82 14.82 0 0 0-20.49 0c-4.763 4.537-11.143 7.296-18.19 7.296-14.655 0-26.536-12.013-26.536-26.833 0-1.738.162-3.425.467-5.051H17.304a41.96 41.96 0 0 0-.304 5.051C17 146.609 35.187 165 57.621 165c10.78 0 20.578-4.246 27.85-11.173a.848.848 0 0 1 1.171 0c7.272 6.927 17.071 11.173 27.85 11.173 22.434 0 40.621-18.391 40.621-41.078 0-3.033-.325-5.99-.942-8.837a.867.867 0 0 1 .596-1.014C171.658 109.091 184 93.318 184 74.629c0-18.688-12.342-34.462-29.233-39.44a.851.851 0 0 1-.333-.189l-7.883 11.818Z" clip-rule="evenodd"/><ellipse cx="77.184" cy="85.269" fill="#0B190F" rx="10.335" ry="10.32"/><ellipse cx="106.972" cy="85.269" fill="#0B190F" rx="10.335" ry="10.32"/></svg>