<svg width="24" height="22" viewBox="0 0 24 22" fill="none" xmlns="http://www.w3.org/2000/svg">
<path d="M21.333 2.83333H17.6347L15.4997 0.5H8.49967L6.36467 2.83333H2.66634C2.0475 2.83333 1.45401 3.07917 1.01643 3.51675C0.57884 3.95434 0.333008 4.54783 0.333008 5.16667V19.1667C0.333008 19.7855 0.57884 20.379 1.01643 20.8166C1.45401 21.2542 2.0475 21.5 2.66634 21.5H21.333C21.9518 21.5 22.5453 21.2542 22.9829 20.8166C23.4205 20.379 23.6663 19.7855 23.6663 19.1667V5.16667C23.6663 4.54783 23.4205 3.95434 22.9829 3.51675C22.5453 3.07917 21.9518 2.83333 21.333 2.83333ZM21.333 19.1667H2.66634V5.16667H7.39134L9.52634 2.83333H14.473L16.608 5.16667H21.333V19.1667ZM11.9997 6.33333C10.4526 6.33333 8.96885 6.94791 7.87488 8.04188C6.78092 9.13584 6.16634 10.6196 6.16634 12.1667C6.16634 13.7138 6.78092 15.1975 7.87488 16.2915C8.96885 17.3854 10.4526 18 11.9997 18C13.5468 18 15.0305 17.3854 16.1245 16.2915C17.2184 15.1975 17.833 13.7138 17.833 12.1667C17.833 10.6196 17.2184 9.13584 16.1245 8.04188C15.0305 6.94791 13.5468 6.33333 11.9997 6.33333ZM11.9997 15.6667C11.0714 15.6667 10.1812 15.2979 9.5248 14.6415C8.86842 13.9852 8.49967 13.0949 8.49967 12.1667C8.49967 11.2384 8.86842 10.3482 9.5248 9.69179C10.1812 9.03541 11.0714 8.66667 11.9997 8.66667C12.9279 8.66667 13.8182 9.03541 14.4745 9.69179C15.1309 10.3482 15.4997 11.2384 15.4997 12.1667C15.4997 13.0949 15.1309 13.9852 14.4745 14.6415C13.8182 15.2979 12.9279 15.6667 11.9997 15.6667Z" fill="#464B53"/>
</svg>
