<svg width="56" height="56" viewBox="0 0 56 56" fill="none" xmlns="http://www.w3.org/2000/svg">
<path fill-rule="evenodd" clip-rule="evenodd" d="M28.0003 8.16667C23.0496 8.16667 18.3017 10.1333 14.801 13.634C11.3003 17.1347 9.33366 21.8826 9.33366 26.8333C9.33366 31.784 11.3003 36.532 14.801 40.0327C18.3017 43.5333 23.0496 45.5 28.0003 45.5H41.3616C42.5022 45.5 43.2513 45.499 43.829 45.4631C44.3874 45.4285 44.6312 45.3678 44.7718 45.3156C45.1627 45.1695 45.5178 44.9411 45.813 44.646C46.1081 44.3508 46.3365 43.9958 46.4826 43.6048C46.5349 43.464 46.5955 43.2205 46.6301 42.663C46.6659 42.0856 46.667 41.3366 46.667 40.1946V26.8333C46.667 21.8826 44.7003 17.1347 41.1997 13.634C37.699 10.1333 32.951 8.16667 28.0003 8.16667ZM11.5012 10.3342C15.877 5.95833 21.8119 3.5 28.0003 3.5C34.1887 3.5 40.1236 5.95833 44.4995 10.3342C48.8753 14.71 51.3337 20.6449 51.3337 26.8333V40.2641C51.3337 41.3179 51.3337 42.2127 51.2878 42.9519C51.2398 43.7265 51.1352 44.482 50.8567 45.2311L50.8558 45.2336C50.4759 46.2521 49.8815 47.1771 49.1128 47.9458C48.3441 48.7145 47.4191 49.3089 46.4006 49.6888L46.3981 49.6897C45.6487 49.9683 44.8923 50.0728 44.1179 50.1209C43.3783 50.1667 42.4834 50.1667 41.4307 50.1667H28.0003C21.8119 50.1667 15.877 47.7083 11.5012 43.3325C7.12532 38.9566 4.66699 33.0217 4.66699 26.8333C4.66699 20.6449 7.12532 14.71 11.5012 10.3342Z" fill="#EAECED"/>
<path fill-rule="evenodd" clip-rule="evenodd" d="M17.792 24.2083C17.792 22.9197 18.8367 21.875 20.1253 21.875H35.8753C37.164 21.875 38.2087 22.9197 38.2087 24.2083C38.2087 25.497 37.164 26.5417 35.8753 26.5417H20.1253C18.8367 26.5417 17.792 25.497 17.792 24.2083ZM25.667 34.7083C25.667 33.4197 26.7117 32.375 28.0003 32.375H35.8753C37.164 32.375 38.2087 33.4197 38.2087 34.7083C38.2087 35.997 37.164 37.0417 35.8753 37.0417H28.0003C26.7117 37.0417 25.667 35.997 25.667 34.7083Z" fill="#EAECED"/>
</svg>
