<svg width="800" height="800" viewBox="0 0 800 800" fill="none" xmlns="http://www.w3.org/2000/svg">
<rect width="800" height="800" fill="#0AC677"/>
<path fill-rule="evenodd" clip-rule="evenodd" d="M552.163 224.07C556.387 227.003 561.128 229.311 566.288 230.832C602.784 241.594 629.375 275.724 629.375 316.015C629.375 356.305 602.784 390.436 566.288 401.197C541.433 408.526 526.292 434.108 531.871 459.848C533.197 465.967 533.905 472.362 533.905 478.978C533.905 527.972 494.642 567.689 446.208 567.689C422.914 567.689 401.829 558.565 386.089 543.565C367.073 525.443 337.386 525.443 318.371 543.565C302.631 558.565 281.546 567.689 258.252 567.689C209.818 567.689 170.555 527.972 170.555 478.978C170.555 473.232 171.089 467.654 172.097 462.28H125.005C124.342 467.752 124 473.325 124 478.978C124 553.98 184.107 614.781 258.252 614.781C293.877 614.781 326.261 600.745 350.294 577.842C351.38 576.807 353.08 576.807 354.166 577.842C378.199 600.745 410.583 614.781 446.208 614.781C520.353 614.781 580.46 553.98 580.46 478.978C580.46 468.949 579.385 459.173 577.345 449.763C577.028 448.298 577.893 446.828 579.317 446.408C635.141 429.947 675.93 377.799 675.93 316.015C675.93 254.23 635.141 202.083 579.317 185.622C578.895 185.497 578.523 185.281 578.215 185L552.163 224.07Z" fill="white"/>
<ellipse cx="322.907" cy="351.188" rx="34.1557" ry="34.119" fill="white"/>
<ellipse cx="421.356" cy="351.188" rx="34.1557" ry="34.119" fill="white"/>
</svg>
