<svg xmlns="http://www.w3.org/2000/svg" width="32" height="32" fill="none" viewBox="0 0 32 32"><path fill="#9B9B9B" fill-rule="evenodd" stroke="#000" stroke-width="1.5" d="M6.71 1.333c.325 0 .636.106.865.295.229.189.358.444.358.711v27.322a.854.854 0 0 1-.093.385 1.018 1.018 0 0 1-.265.326 1.268 1.268 0 0 1-.397.218 1.455 1.455 0 0 1-.935 0 1.268 1.268 0 0 1-.397-.218 1.018 1.018 0 0 1-.265-.326.853.853 0 0 1-.093-.385V2.34c0-.132.032-.263.093-.385.062-.122.152-.233.265-.326.114-.093.248-.167.397-.218.148-.05.307-.077.467-.077Z" clip-rule="evenodd"/><path fill="#FA4141" stroke="#000" stroke-width="1.5" d="M9.441 4.495a9.348 9.348 0 0 0-2.81-.491.612.612 0 0 0-.631.62v11.98c.002.134.062.26.166.355a.595.595 0 0 0 .392.148c2.51.048 3.085.893 5.954.893 3.07 0 6.512-1.873 9.482-1.873 2.013 0 4.2.673 5.437 1.177.261.106.569-.063.569-.323V4.862a.677.677 0 0 0-.125-.39.783.783 0 0 0-.336-.268c-5.524-2.296-8.237-.76-11.62.105-2.158.553-4.081.813-6.478.185Z"/></svg>