<svg xmlns="http://www.w3.org/2000/svg" width="32" height="32" fill="none" viewBox="0 0 32 32"><path fill="#FF6E83" stroke="#000" stroke-width="1.5" d="M28.91 3.217C27.192 1.498 25.23.673 24.53 1.373L19.8 6.105l6.222 6.223 4.733-4.733c.7-.7-.126-2.66-1.844-4.378Z"/><path fill="#BFBCAF" stroke="#000" stroke-width="1.5" d="M25.91 6.217c-1.96-1.96-4.197-2.903-4.995-2.104l-4.847 4.846 7.1 7.1 4.846-4.847c.798-.798-.143-3.035-2.104-4.995Z"/><path fill="#2B2622" stroke="#000" stroke-width="1.5" d="M7.222 28.124 2.953 29.98a.613.613 0 0 1-.807-.807l1.857-4.268a2.446 2.446 0 1 1 3.219 3.219Z"/><path fill="#FFD469" stroke="#000" stroke-width="1.5" d="M25.213 13.997a.43.43 0 0 0 .014-.02c.615-.882-.327-3.006-2.2-4.879-1.873-1.873-3.996-2.815-4.879-2.199a.803.803 0 0 0-.02.013l-.023.018a.643.643 0 0 0-.063.054l-.01.01L6.779 18.247s-3.186 7.884-1.985 9.085c1.2 1.2 9.085-1.986 9.085-1.986L25.14 14.084a.633.633 0 0 0 .055-.063l.017-.024Z"/><path fill="#E5AA6E" stroke="#000" stroke-width="1.5" d="m6.78 18.247-.25 1.559a.34.34 0 0 0 .39.39l1.118-.183a.34.34 0 0 1 .393.37l-.124 1.26a.34.34 0 0 0 .39.37l1.13-.175a.34.34 0 0 1 .387.396l-.193 1.08a.34.34 0 0 0 .369.399l1.27-.128a.34.34 0 0 1 .373.373l-.13 1.282a.34.34 0 0 0 .387.37l1.617-.236-9.113 3.813c.727-.727-1.155-2.61-1.882-1.882l3.868-9.058Z"/><path fill="#FFB636" d="M9.119 18.66a.425.425 0 0 1-.3-.725l9.397-9.398a.424.424 0 0 1 .6.6l-9.397 9.398a.422.422 0 0 1-.3.124Zm2.7 2.275 9.398-9.397a.425.425 0 1 0-.6-.6l-9.398 9.397a.424.424 0 0 0 .6.6Zm2.401 2.401 9.397-9.397a.425.425 0 1 0-.6-.6l-9.397 9.397a.424.424 0 0 0 .6.6Z"/></svg>