<svg xmlns="http://www.w3.org/2000/svg" width="143" height="76" fill="none"><g filter="url(#a)"><rect width="111" height="44" x="16" y="16" fill="#fff" rx="22" shape-rendering="crispEdges"/><path fill="#464B53" fill-rule="evenodd" d="M38.8 30.15a1.567 1.567 0 0 1 1.4 0l4.16 2.082a.318.318 0 0 0 .28 0l3.224-1.613a1.563 1.563 0 0 1 2.261 1.398V42.42c0 .592-.334 1.133-.864 1.397l-4.063 2.031a1.567 1.567 0 0 1-1.396 0l-4.162-2.08a.317.317 0 0 0-.28 0l-3.223 1.612a1.562 1.562 0 0 1-2.262-1.398V33.58c0-.592.334-1.133.863-1.397l4.063-2.032Zm.7 2.85a.625.625 0 0 1 .625.625V40.5a.625.625 0 1 1-1.25 0v-6.875A.625.625 0 0 1 39.5 33Zm5.625 2.5a.625.625 0 1 0-1.25 0v6.875a.625.625 0 1 0 1.25 0V35.5Z" clip-rule="evenodd"/><path fill="#464B53" d="M65.566 35.15c-.005.738.12 1.463.374 2.176a5.89 5.89 0 0 0 1.135 1.919 4.95 4.95 0 0 0 1.831 1.296l-1.01 1.465a5.38 5.38 0 0 1-1.963-1.414 7.032 7.032 0 0 1-1.29-2.19 7.83 7.83 0 0 1-1.303 2.388 5.424 5.424 0 0 1-1.978 1.553l-1.069-1.48a4.97 4.97 0 0 0 1.824-1.384 6.255 6.255 0 0 0 1.142-2.036 7.043 7.043 0 0 0 .389-2.293v-.82H60.82v-1.523h7.53v1.523h-2.784v.82Zm4.102-3.632h1.89v13.33h-1.89v-13.33Zm14.26 7.441h-3.867v2.842h5.2v1.523H73.06v-1.523h5.142v-2.842h-3.706v-6.504h9.331v1.494H76.37v3.53h7.558v1.48Zm13.997 4.336H85.723v-1.523h5.142V39.31h-3.853v-6.943h1.875v2.066h5.816v-2.066h1.86v6.944h-3.838v2.46h5.2v1.524Zm-3.222-5.479v-1.89h-5.816v1.89h5.816Zm14.89 7.032h-1.889v-13.33h1.889v13.33Zm-11.162-3.78c1.138-.537 2.075-1.135 2.813-1.794.742-.66 1.308-1.39 1.699-2.19.395-.806.644-1.709.747-2.71h-4.541v-1.465h6.445c-.005 1.426-.198 2.722-.578 3.89-.381 1.166-1.028 2.238-1.941 3.215-.909.976-2.129 1.826-3.663 2.548l-.98-1.494Z"/></g><defs><filter id="a" width="143" height="76" x="0" y="0" color-interpolation-filters="sRGB" filterUnits="userSpaceOnUse"><feFlood flood-opacity="0" result="BackgroundImageFix"/><feColorMatrix in="SourceAlpha" result="hardAlpha" values="0 0 0 0 0 0 0 0 0 0 0 0 0 0 0 0 0 0 127 0"/><feOffset/><feGaussianBlur stdDeviation="8"/><feComposite in2="hardAlpha" operator="out"/><feColorMatrix values="0 0 0 0 0 0 0 0 0 0 0 0 0 0 0 0 0 0 0.16 0"/><feBlend in2="BackgroundImageFix" result="effect1_dropShadow_1889_45501"/><feBlend in="SourceGraphic" in2="effect1_dropShadow_1889_45501" result="shape"/></filter></defs></svg>