<svg xmlns="http://www.w3.org/2000/svg" width="186" height="74" fill="none" viewBox="0 0 186 74"><g filter="url(#a)"><path fill="#fff" fill-rule="evenodd" d="M24 16a8 8 0 0 0-8 8v20a8 8 0 0 0 8 8h62.798a2 2 0 0 1 1.606.808l2.99 4.029a2 2 0 0 0 3.212 0l2.99-4.03A2 2 0 0 1 99.202 52H162a8 8 0 0 0 8-8V24a8 8 0 0 0-8-8H24Z" clip-rule="evenodd"/></g><path fill="#464B53" d="M40.676 34.762H35.78V35.8c1.117.073 1.983.298 2.598.676.615.374.925.878.93 1.511 0 .47-.174.868-.52 1.197-.342.332-.834.585-1.477.758-.637.174-1.399.26-2.283.26-.898 0-1.67-.087-2.317-.26-.643-.168-1.135-.419-1.477-.752a1.618 1.618 0 0 1-.512-1.203c0-.633.31-1.139.93-1.517.62-.379 1.494-.604 2.624-.677v-1.032H29.41v-1.23h11.266v1.23Zm-10.719-2.994a7.843 7.843 0 0 0 1.962-.417c.579-.21 1.041-.465 1.388-.766.35-.3.57-.622.656-.964h-3.527v-1.217h9.228v1.217h-3.562c.083.342.297.666.643.97.351.302.816.557 1.395.766a8.317 8.317 0 0 0 2.003.41l-.534 1.204c-1.116-.114-2.076-.38-2.878-.8-.797-.424-1.364-.95-1.702-1.58-.337.634-.902 1.16-1.695 1.58-.793.42-1.746.686-2.857.8l-.52-1.203Zm2.31 6.22c-.004.337.226.597.691.78.465.182 1.14.273 2.023.273.907 0 1.6-.089 2.079-.267.483-.177.726-.44.731-.786-.005-.341-.244-.601-.718-.779-.474-.178-1.155-.269-2.044-.274-.902.005-1.59.096-2.064.274-.47.178-.702.438-.697.78Zm19.312-1.011h-1.517V32.86h-3.227v-1.203h3.227v-1.12h-3.227v-1.204h3.227v-1.463h1.517v9.106Zm-9.638-8.286h1.504v5.346c.847-.009 1.65-.043 2.406-.102a24.778 24.778 0 0 0 2.31-.308l.15 1.23c-.879.169-1.738.283-2.576.342-.839.06-1.78.091-2.824.096h-.97V28.69Zm1.517 7.479h1.532v2.57h6.904v1.23h-8.436v-3.8Zm12.968-7.41a2.66 2.66 0 0 1 1.504.444c.447.296.81.718 1.087 1.265h2.892v-2.612h1.504V40.23h-1.504v-4.675h-2.782c-.27.62-.639 1.098-1.108 1.435-.47.337-1 .506-1.593.506a2.72 2.72 0 0 1-1.654-.533c-.478-.36-.852-.87-1.121-1.531-.264-.661-.397-1.431-.397-2.31 0-.876.133-1.642.397-2.298.269-.66.645-1.169 1.128-1.524a2.686 2.686 0 0 1 1.647-.54Zm-1.709 4.361c0 .624.071 1.162.212 1.613.142.451.34.796.595 1.033.26.237.56.357.902.362.342-.005.643-.125.903-.362s.46-.582.601-1.033c.146-.45.219-.989.219-1.613 0-.62-.073-1.155-.219-1.606-.141-.451-.342-.796-.601-1.033a1.298 1.298 0 0 0-.903-.355c-.342 0-.642.12-.902.362-.255.237-.453.581-.595 1.032-.141.447-.212.98-.212 1.6Zm4.73-1.408c.092.442.137.911.137 1.408 0 .424-.034.825-.102 1.203h2.427v-2.611h-2.461Zm9.947-2.078c-.004.57.103 1.11.322 1.62.223.506.553.952.99 1.34.438.383.972.672 1.6.868l-.82 1.19a4.985 4.985 0 0 1-1.702-1.005 4.66 4.66 0 0 1-1.114-1.546 5.176 5.176 0 0 1-1.197 1.792 5.135 5.135 0 0 1-1.88 1.141l-.806-1.23c.665-.22 1.228-.536 1.688-.95.46-.415.805-.891 1.033-1.43.232-.541.35-1.116.355-1.722v-1.176h1.531v1.108Zm-2.556 8.203a1.767 1.767 0 0 1 .499-1.278c.337-.36.82-.634 1.449-.82.633-.188 1.383-.281 2.249-.281.87 0 1.622.093 2.256.28.633.187 1.119.46 1.456.82.342.356.513.782.513 1.279 0 .497-.171.923-.513 1.278-.337.356-.823.625-1.456.807-.634.187-1.386.28-2.256.28-.866 0-1.616-.093-2.249-.28-.629-.182-1.112-.451-1.45-.807a1.767 1.767 0 0 1-.498-1.278Zm1.504 0c-.005.374.228.663.697.868.47.2 1.135.303 1.996.308.866-.005 1.534-.107 2.003-.308.47-.205.704-.494.704-.868 0-.388-.235-.684-.704-.889-.465-.205-1.133-.31-2.003-.314-.866.004-1.534.11-2.003.314-.465.205-.695.502-.69.889Zm2.898-7.588h2.461v-2.393h1.518v7.274H73.7v-3.637h-2.46V30.25Zm19.757 4.512h-4.895V35.8c1.117.073 1.982.298 2.598.676.615.374.925.878.93 1.511 0 .47-.174.868-.52 1.197-.342.332-.834.585-1.477.758-.638.174-1.399.26-2.283.26-.898 0-1.67-.087-2.317-.26-.643-.168-1.135-.419-1.477-.752a1.618 1.618 0 0 1-.513-1.203c0-.633.31-1.139.93-1.517.62-.379 1.495-.604 2.625-.677v-1.032h-4.867v-1.23h11.266v1.23Zm-10.72-2.994a7.843 7.843 0 0 0 1.963-.417c.578-.21 1.041-.465 1.387-.766.351-.3.57-.622.657-.964h-3.528v-1.217h9.229v1.217h-3.562c.082.342.296.666.643.97.35.302.816.557 1.394.766.584.206 1.251.342 2.003.41l-.533 1.204c-1.117-.114-2.076-.38-2.878-.8-.797-.424-1.365-.95-1.702-1.58-.337.634-.902 1.16-1.695 1.58-.793.42-1.746.686-2.858.8l-.52-1.203Zm2.311 6.22c-.004.337.226.597.69.78.466.182 1.14.273 2.024.273.907 0 1.6-.089 2.078-.267.483-.177.727-.44.732-.786-.005-.341-.244-.601-.718-.779-.474-.178-1.155-.269-2.044-.274-.902.005-1.59.096-2.064.274-.47.178-.702.438-.698.78Zm18.711-7.123h1.722v1.244h-1.722v2.994h-1.518v-7.246h1.518v3.008Zm-9.79 3.2c.926-.251 1.725-.582 2.4-.992.679-.41 1.214-.88 1.606-1.408.392-.533.632-1.11.718-1.73H92.07v-1.23h5.81c0 1.071-.225 2.042-.676 2.912-.451.866-1.108 1.609-1.969 2.229-.861.62-1.903 1.103-3.124 1.449l-.602-1.23Zm1.668 3.663a1.856 1.856 0 0 1 .506-1.312c.342-.374.825-.66 1.45-.861.624-.2 1.349-.301 2.173-.301.83 0 1.554.1 2.174.3.625.201 1.105.488 1.443.862.341.374.512.811.512 1.313 0 .505-.171.945-.512 1.319-.338.373-.818.658-1.443.854-.62.2-1.344.301-2.174.301-.825 0-1.55-.1-2.174-.3-.624-.197-1.107-.481-1.449-.855a1.865 1.865 0 0 1-.506-1.32Zm1.504 0c0 .265.105.495.315.69.21.192.51.34.902.445.397.1.866.15 1.408.15.538 0 1.005-.05 1.402-.15.396-.105.701-.253.916-.444a.908.908 0 0 0 .321-.69c-.005-.406-.241-.72-.71-.944-.47-.228-1.113-.342-1.929-.342-.542 0-1.011.05-1.408.15-.392.101-.693.25-.902.445a.902.902 0 0 0-.315.69Zm18.724-3.048h-3.664v2.83h4.922v1.244H103.37V37.51h4.867v-2.83h-3.5v-5.907h8.573v1.217h-7.055v3.487h7.15v1.203Zm15.122 2.215h-1.531V27.87h1.531v9.024Zm-10.281-2.913a4.57 4.57 0 0 0 1.654-.99 4.323 4.323 0 0 0 1.025-1.491c.233-.56.347-1.142.342-1.743v-1.203h1.572v1.203c-.004.583.105 1.14.329 1.668.227.528.565.998 1.011 1.408.447.406.989.715 1.627.93l-.779 1.203a4.98 4.98 0 0 1-1.791-1.067 5.03 5.03 0 0 1-1.169-1.674 5.279 5.279 0 0 1-1.19 1.804 5.021 5.021 0 0 1-1.838 1.155l-.793-1.203Zm2.105 2.051h1.531v2.707h6.987v1.23h-8.518v-3.937Zm13.474-4.402c0 .656.091 1.292.273 1.907a5.25 5.25 0 0 0 .841 1.668c.379.497.846.896 1.402 1.196l-.848 1.121a4.507 4.507 0 0 1-1.436-1.21 6.11 6.11 0 0 1-.936-1.784 6.967 6.967 0 0 1-.937 1.942 4.558 4.558 0 0 1-1.435 1.34l-.889-1.149a4.407 4.407 0 0 0 1.408-1.285 5.7 5.7 0 0 0 .841-1.764 7.454 7.454 0 0 0 .28-1.982v-.383h-2.105v-1.23h2.105v-1.723h1.436v1.723h2.064v1.23h-2.064v.383Zm1.299.97h1.613V28.09h1.436v11.525h-1.436V33.86h-1.613v-1.257Zm4.115-4.744h1.449v12.36h-1.449v-12.36Zm4.136 11.252a1.07 1.07 0 0 1-1.066-1.066 1.07 1.07 0 0 1 1.066-1.053c.187 0 .36.048.52.144.164.096.294.225.389.39a1.038 1.038 0 0 1 0 1.053 1.059 1.059 0 0 1-.389.389.994.994 0 0 1-.52.143Zm3.815 0a1.059 1.059 0 0 1-.923-.533 1.038 1.038 0 0 1 0-1.053 1.059 1.059 0 0 1 .923-.533.99.99 0 0 1 .519.144 1.07 1.07 0 0 1 .533.909 1.07 1.07 0 0 1-.533.923.99.99 0 0 1-.519.143Zm3.814 0a1.07 1.07 0 0 1-1.066-1.066 1.07 1.07 0 0 1 1.066-1.053c.187 0 .36.048.52.144.164.096.293.225.389.39a1.038 1.038 0 0 1 0 1.053 1.066 1.066 0 0 1-.389.389.994.994 0 0 1-.52.143Z"/><defs><filter id="a" width="186" height="73.644" x="0" y="0" color-interpolation-filters="sRGB" filterUnits="userSpaceOnUse"><feFlood flood-opacity="0" result="BackgroundImageFix"/><feColorMatrix in="SourceAlpha" result="hardAlpha" values="0 0 0 0 0 0 0 0 0 0 0 0 0 0 0 0 0 0 127 0"/><feOffset/><feGaussianBlur stdDeviation="8"/><feComposite in2="hardAlpha" operator="out"/><feColorMatrix values="0 0 0 0 0 0 0 0 0 0 0 0 0 0 0 0 0 0 0.16 0"/><feBlend in2="BackgroundImageFix" result="effect1_dropShadow_2018_14853"/><feBlend in="SourceGraphic" in2="effect1_dropShadow_2018_14853" result="shape"/></filter></defs></svg>