<svg xmlns="http://www.w3.org/2000/svg" width="154" height="42" fill="none" viewBox="0 0 186 74"><g filter="url(#a)"><path fill="#fff" fill-rule="evenodd" d="M24 16a8 8 0 0 0-8 8v20a8 8 0 0 0 8 8h62.798a2 2 0 0 1 1.606.808l2.99 4.029a2 2 0 0 0 3.212 0l2.99-4.03A2 2 0 0 1 99.202 52H162a8 8 0 0 0 8-8V24a8 8 0 0 0-8-8H24Z" clip-rule="evenodd"/></g><defs><filter id="a" width="186" height="73.644" x="0" y="0" color-interpolation-filters="sRGB" filterUnits="userSpaceOnUse"><feFlood flood-opacity="0" result="BackgroundImageFix"/><feColorMatrix in="SourceAlpha" result="hardAlpha" values="0 0 0 0 0 0 0 0 0 0 0 0 0 0 0 0 0 0 127 0"/><feOffset/><feGaussianBlur stdDeviation="8"/><feComposite in2="hardAlpha" operator="out"/><feColorMatrix values="0 0 0 0 0 0 0 0 0 0 0 0 0 0 0 0 0 0 0.16 0"/><feBlend in2="BackgroundImageFix" result="effect1_dropShadow_3325_11006"/><feBlend in="SourceGraphic" in2="effect1_dropShadow_3325_11006" result="shape"/></filter></defs></svg>