<svg xmlns="http://www.w3.org/2000/svg" width="174" height="214" fill="none"><rect width="174" height="214" fill="#F6F8FA" rx="12"/><g style="mix-blend-mode:luminosity"><path fill="#FFDC5D" d="M63.167 83.5c0 4.694-2.723 8.5-6.084 8.5C53.723 92 51 88.194 51 83.5s2.723-8.5 6.083-8.5c3.36 0 6.084 3.806 6.084 8.5Zm60.833 0c0 4.694-2.723 8.5-6.083 8.5-3.361 0-6.084-3.806-6.084-8.5s2.723-8.5 6.084-8.5c3.36 0 6.083 3.806 6.083 8.5Z"/><path fill="#FFDC5D" d="M57 84.5C57 65.999 70.43 51 87 51c16.569 0 30 14.999 30 33.5 0 18.501-13.431 33.5-30 33.5-16.57 0-30-14.999-30-33.5Z"/><path fill="#662113" d="M76.167 83.333A2.167 2.167 0 0 1 74 81.167v-4.334a2.167 2.167 0 0 1 4.333 0v4.334a2.166 2.166 0 0 1-2.166 2.166Zm21.666 0a2.167 2.167 0 0 1-2.166-2.166v-4.334a2.167 2.167 0 1 1 4.333 0v4.334a2.167 2.167 0 0 1-2.167 2.166Z"/><path fill="#FFAC33" d="M86.5 40c19.999 0 32.5 13.6 32.5 24.931 0 11.332-2.5 15.865-5 11.332l-4.998-9.065s-15.001 0-20-4.534c0 0 7.499 13.6-7.5 0 0 0 2.5 9.067-12.5-2.267 0 0-7.5 4.534-10.002 15.864-.694 3.144-5 .002-5-11.33C54 53.597 64 40 86.5 40ZM76.611 96.802C80.226 95.45 81.13 95 87.003 95c5.873 0 7.644.242 12.198 1.802 4.182 1.431 8.583 6.306 7.68 7.657-.903 1.351-7.279 1.687-13.101 0-2.88-.834-6.777-3.603-6.777-3.603s-3.627 2.704-6.326 3.603c-5.545 1.847-12.198 2.252-12.65 0-.453-2.252 4.97-6.306 8.584-7.657ZM89.5 93h-5a2.5 2.5 0 0 1 0-5h5a2.5 2.5 0 0 1 0 5Z"/></g><path fill="#464B53" d="M84.544 152.793h2.402v2.031h-2.402v4.238h-2.5v-10.019h2.5v3.75Zm-13.38-2.91h2.5v6.181a40.75 40.75 0 0 0 6.934-.732l.293 2.031a35.31 35.31 0 0 1-4.082.576 50.196 50.196 0 0 1-4.12.166h-1.524v-8.222Zm1.74 9.98h11.64v6.719h-11.64v-6.719Zm9.198 4.766v-2.832h-6.758v2.832h6.758Zm11.944-13.184a6.017 6.017 0 0 0 .42 2.305 5.177 5.177 0 0 0 1.348 1.895c.612.546 1.377.963 2.295 1.25l-1.309 1.953c-.938-.326-1.738-.782-2.402-1.368a6.556 6.556 0 0 1-1.563-2.119 7.224 7.224 0 0 1-1.7 2.471c-.728.69-1.614 1.211-2.655 1.563l-1.309-1.993c.977-.312 1.79-.765 2.441-1.357a5.588 5.588 0 0 0 1.436-2.041 6.55 6.55 0 0 0 .479-2.442v-1.621h2.52v1.504Zm-3.926 11.914c0-.722.245-1.344.733-1.865.495-.521 1.2-.915 2.119-1.182.918-.273 2.005-.41 3.262-.41 1.263 0 2.353.137 3.271.41.918.267 1.624.661 2.119 1.182.495.521.742 1.143.742 1.865a2.58 2.58 0 0 1-.742 1.856c-.495.521-1.201.915-2.119 1.181-.918.267-2.008.401-3.271.401s-2.354-.134-3.272-.401c-.911-.266-1.615-.66-2.11-1.181a2.6 2.6 0 0 1-.732-1.856Zm2.48 0c0 .495.31.87.928 1.123.625.254 1.527.381 2.706.381 1.184 0 2.086-.127 2.705-.381.625-.253.94-.628.947-1.123-.007-.507-.32-.888-.938-1.142-.618-.254-1.523-.381-2.714-.381-1.185 0-2.087.13-2.706.391-.618.253-.927.631-.927 1.132Zm3.888-11.074h3.34v-3.262h2.48v10.411h-2.48v-5.118h-3.34v-2.031Z"/></svg>