<svg width="174" height="214" viewBox="0 0 174 214" fill="none" xmlns="http://www.w3.org/2000/svg">
<rect x="1.5" y="1.5" width="171" height="211" rx="10.5" fill="#F4FAF6"/>
<rect x="1.5" y="1.5" width="171" height="211" rx="10.5" stroke="#4AA662" stroke-width="3"/>
<path d="M63.1667 83.5C63.1667 88.1941 60.4438 92 57.0833 92C53.7229 92 51 88.1941 51 83.5C51 78.8059 53.7229 75 57.0833 75C60.4438 75 63.1667 78.8059 63.1667 83.5ZM124 83.5C124 88.1941 121.277 92 117.917 92C114.556 92 111.833 88.1941 111.833 83.5C111.833 78.8059 114.556 75 117.917 75C121.277 75 124 78.8059 124 83.5Z" fill="#FFDC5D"/>
<path d="M57 84.5C57 65.9988 70.4308 51 87 51C103.569 51 117 65.9988 117 84.5C117 103.001 103.569 118 87 118C70.4308 118 57 103.001 57 84.5Z" fill="#FFDC5D"/>
<path d="M76.1667 83.3333C75.592 83.3333 75.0409 83.105 74.6346 82.6987C74.2283 82.2924 74 81.7413 74 81.1666V76.8333C74 76.2587 74.2283 75.7076 74.6346 75.3012C75.0409 74.8949 75.592 74.6666 76.1667 74.6666C76.7413 74.6666 77.2924 74.8949 77.6987 75.3012C78.1051 75.7076 78.3333 76.2587 78.3333 76.8333V81.1666C78.3333 81.7413 78.1051 82.2924 77.6987 82.6987C77.2924 83.105 76.7413 83.3333 76.1667 83.3333ZM97.8333 83.3333C97.2587 83.3333 96.7076 83.105 96.3013 82.6987C95.8949 82.2924 95.6667 81.7413 95.6667 81.1666V76.8333C95.6667 76.2587 95.8949 75.7076 96.3013 75.3012C96.7076 74.8949 97.2587 74.6666 97.8333 74.6666C98.408 74.6666 98.9591 74.8949 99.3654 75.3012C99.7717 75.7076 100 76.2587 100 76.8333V81.1666C100 81.7413 99.7717 82.2924 99.3654 82.6987C98.9591 83.105 98.408 83.3333 97.8333 83.3333Z" fill="#662113"/>
<path d="M86.5 40C106.499 40 119 53.5992 119 64.9312C119 76.2632 116.5 80.7956 114 76.2632L109.002 67.1985C109.002 67.1985 94.0005 67.1985 89.0025 62.664C89.0025 62.664 96.5007 76.2632 81.502 62.664C81.502 62.664 84.0021 71.7308 69.0011 60.3967C69.0011 60.3967 61.5029 64.9312 59.0004 76.2611C58.3062 79.4053 54 76.2632 54 64.9312C54 53.5971 64.0007 40 86.5 40Z" fill="#FFAC33"/>
<path d="M76.6114 96.8017C80.2257 95.4504 81.1293 95 87.0027 95C92.876 95 94.6465 95.2422 99.2012 96.8017C103.383 98.2335 107.784 103.108 106.881 104.459C105.978 105.81 99.6022 106.146 93.7796 104.459C90.8993 103.625 87.0027 100.856 87.0027 100.856C87.0027 100.856 83.3758 103.56 80.6775 104.459C75.1325 106.306 68.4786 106.711 68.0265 104.459C67.5745 102.207 72.997 98.153 76.6114 96.8017Z" fill="#FFAC33"/>
<path d="M89.5 93H84.5C83.837 93 83.2011 92.7366 82.7322 92.2678C82.2634 91.7989 82 91.163 82 90.5C82 89.837 82.2634 89.2011 82.7322 88.7322C83.2011 88.2634 83.837 88 84.5 88H89.5C90.163 88 90.7989 88.2634 91.2678 88.7322C91.7366 89.2011 92 89.837 92 90.5C92 91.163 91.7366 91.7989 91.2678 92.2678C90.7989 92.7366 90.163 93 89.5 93Z" fill="#FFAC33"/>
<path d="M84.5438 152.793H86.9461V154.824H84.5438V159.062H82.0438V149.043H84.5438V152.793ZM71.1648 149.883H73.6648V156.064C76.0542 156.012 78.3654 155.768 80.5984 155.332L80.8914 157.363C79.5242 157.637 78.1635 157.829 76.8094 157.939C75.4617 158.05 74.088 158.105 72.6883 158.105H71.1648V149.883ZM72.9031 159.863H84.5438V166.582H72.9031V159.863ZM82.1023 164.629V161.797H75.3445V164.629H82.1023ZM94.0461 151.445C94.0396 152.266 94.1796 153.034 94.466 153.75C94.759 154.466 95.2082 155.098 95.8137 155.645C96.4257 156.191 97.1906 156.608 98.1086 156.895L96.8 158.848C95.8625 158.522 95.0617 158.066 94.3977 157.48C93.7401 156.888 93.2193 156.182 92.8352 155.361C92.4315 156.318 91.8651 157.142 91.1359 157.832C90.4068 158.522 89.5214 159.043 88.4797 159.395L87.1711 157.402C88.1477 157.09 88.9615 156.637 89.6125 156.045C90.2635 155.446 90.7421 154.766 91.048 154.004C91.3605 153.236 91.5201 152.422 91.5266 151.562V149.941H94.0461V151.445ZM90.1203 163.359C90.1203 162.637 90.3645 162.015 90.8527 161.494C91.3475 160.973 92.0539 160.579 92.9719 160.312C93.8898 160.039 94.9771 159.902 96.2336 159.902C97.4966 159.902 98.5871 160.039 99.5051 160.312C100.423 160.579 101.129 160.973 101.624 161.494C102.119 162.015 102.366 162.637 102.366 163.359C102.366 164.082 102.119 164.701 101.624 165.215C101.129 165.736 100.423 166.13 99.5051 166.396C98.5871 166.663 97.4966 166.797 96.2336 166.797C94.9706 166.797 93.8801 166.663 92.9621 166.396C92.0507 166.13 91.3475 165.736 90.8527 165.215C90.3645 164.701 90.1203 164.082 90.1203 163.359ZM92.6008 163.359C92.6008 163.854 92.91 164.229 93.5285 164.482C94.1535 164.736 95.0552 164.863 96.2336 164.863C97.4185 164.863 98.3202 164.736 98.9387 164.482C99.5637 164.229 99.8794 163.854 99.8859 163.359C99.8794 162.852 99.5669 162.471 98.9484 162.217C98.3299 161.963 97.425 161.836 96.2336 161.836C95.0487 161.836 94.147 161.966 93.5285 162.227C92.91 162.48 92.6008 162.858 92.6008 163.359ZM96.4875 152.285H99.8273V149.023H102.308V159.434H99.8273V154.316H96.4875V152.285Z" fill="#0B190F"/>
</svg>
