<svg xmlns="http://www.w3.org/2000/svg" width="174" height="214" fill="none"><rect width="171" height="211" x="1.5" y="1.5" fill="#F4FAF6" rx="10.5"/><rect width="171" height="211" x="1.5" y="1.5" stroke="#4AA662" stroke-width="3" rx="10.5"/><g clip-path="url(#a)"><path fill="#FFAC33" d="M126 84.204c0 2.627-.577 5.15-1.683 7.41a2.685 2.685 0 0 0 0 2.368c1.053 2.206 1.683 4.677 1.683 7.304 0 9.248-7.466 16.714-16.714 16.714H64.714C55.466 118 48 110.534 48 101.286c0-2.627.63-5.098 1.683-7.307a2.675 2.675 0 0 0 0-2.365A17.411 17.411 0 0 1 48 84.204a17.16 17.16 0 0 1 2.825-9.444l.014-.017a16.825 16.825 0 0 0 2.73-9.198v-.056a17.132 17.132 0 0 1 17.14-17.132c.947 0 1.839-.473 2.365-1.209A17.16 17.16 0 0 1 87 40a17.16 17.16 0 0 1 13.929 7.148c.526.788 1.42 1.21 2.367 1.21a17.134 17.134 0 0 1 17.133 17.131v.056c0 3.26.947 6.463 2.732 9.198l.012.014c.573.836 1.041 1.727 1.459 2.666h-.028a17 17 0 0 1 1.396 6.78Z"/><path fill="#FFDC5D" d="M120.428 84.293a8.356 8.356 0 1 1-16.713.001 8.356 8.356 0 0 1 16.713 0Zm-49.307.279a8.357 8.357 0 1 1-16.715 0 8.357 8.357 0 0 1 16.715 0Z"/><path fill="#FFDC5D" d="M60.577 77.735h.064l-.053-1.379-.053-1.588c.106-4.93 2.98-6.836 4.207-7.474.085-.028.174-.063.267-.106.095-.04.184-.076.267-.106a11.979 11.979 0 0 0 6.176-6.41l.427-1.008a1.37 1.37 0 0 1 2.395-.264 20.056 20.056 0 0 0 16.567 8.69h16.723c.936 0 5.621.455 5.9 6.92l-.616 15.183c-.641 14.555-12.006 24.33-25.882 24.33-13.873 0-25.241-9.775-25.882-24.33l-.507-12.458Z"/><path fill="#990839" d="M87.002 99.6a15.6 15.6 0 0 1-7.196-1.704c-.71-.363-1.476.44-1.028 1.086a9.84 9.84 0 0 0 8.224 4.393 9.833 9.833 0 0 0 8.223-4.393c.446-.671-.317-1.449-1.028-1.086a15.6 15.6 0 0 1-7.195 1.704Z"/><path fill="#662113" d="M75.333 87a2.257 2.257 0 0 1-1.65-.732A2.594 2.594 0 0 1 73 84.5v-5c0-.663.246-1.299.683-1.768a2.257 2.257 0 0 1 1.65-.732c.62 0 1.213.263 1.65.732.438.47.684 1.105.684 1.768v5c0 .663-.246 1.299-.684 1.768a2.257 2.257 0 0 1-1.65.732Zm23.334 0a2.258 2.258 0 0 1-1.65-.732 2.594 2.594 0 0 1-.684-1.768v-5c0-.663.246-1.299.684-1.768a2.258 2.258 0 0 1 1.65-.732c.618 0 1.212.263 1.65.732.437.47.683 1.105.683 1.768v5c0 .663-.246 1.299-.683 1.768a2.259 2.259 0 0 1-1.65.732Z"/><path fill="#FFAC33" d="M89.5 93h-5a2.5 2.5 0 0 1 0-5h5a2.5 2.5 0 0 1 0 5Z"/></g><path fill="#0B190F" d="M75.344 150.273c.801 0 1.524.209 2.169.625.644.417 1.168 1.01 1.572 1.778h3.896v-3.653h2.461v17.813h-2.46v-6.66H79.27c-.397.879-.937 1.562-1.62 2.051a3.882 3.882 0 0 1-2.306.722c-.898 0-1.699-.257-2.402-.771-.696-.521-1.24-1.26-1.63-2.217-.391-.964-.583-2.083-.577-3.359-.006-1.27.186-2.383.576-3.34.391-.957.935-1.693 1.631-2.207a3.931 3.931 0 0 1 2.403-.782Zm-2.226 6.329c0 .865.091 1.608.273 2.226.183.612.443 1.078.782 1.397.338.312.729.465 1.171.459.45.006.84-.147 1.172-.459.339-.319.6-.785.782-1.397.182-.618.273-1.361.273-2.226 0-.866-.091-1.605-.273-2.217-.183-.612-.443-1.074-.782-1.387a1.636 1.636 0 0 0-1.172-.478c-.442 0-.833.159-1.171.478-.339.313-.6.778-.782 1.397-.182.612-.273 1.347-.273 2.207Zm6.66-1.914c.117.585.176 1.223.176 1.914 0 .553-.04 1.08-.117 1.582h3.144v-3.496h-3.203Zm14.268-3.243a6.017 6.017 0 0 0 .42 2.305 5.177 5.177 0 0 0 1.348 1.895c.612.546 1.377.963 2.295 1.25l-1.309 1.953c-.938-.326-1.738-.782-2.402-1.368a6.556 6.556 0 0 1-1.563-2.119 7.224 7.224 0 0 1-1.7 2.471c-.728.69-1.614 1.211-2.655 1.563l-1.309-1.993c.977-.312 1.79-.765 2.441-1.357a5.588 5.588 0 0 0 1.436-2.041 6.55 6.55 0 0 0 .479-2.442v-1.621h2.52v1.504Zm-3.926 11.914c0-.722.245-1.344.733-1.865.495-.521 1.2-.915 2.119-1.182.918-.273 2.005-.41 3.262-.41 1.263 0 2.353.137 3.271.41.918.267 1.624.661 2.119 1.182.495.521.742 1.143.742 1.865a2.58 2.58 0 0 1-.742 1.856c-.495.521-1.201.915-2.119 1.181-.918.267-2.008.401-3.271.401s-2.354-.134-3.272-.401c-.911-.266-1.615-.66-2.11-1.181a2.6 2.6 0 0 1-.732-1.856Zm2.48 0c0 .495.31.87.928 1.123.625.254 1.527.381 2.706.381 1.184 0 2.086-.127 2.705-.381.625-.253.94-.628.947-1.123-.007-.507-.32-.888-.938-1.142-.618-.254-1.523-.381-2.714-.381-1.185 0-2.087.13-2.706.391-.618.253-.927.631-.927 1.132Zm3.888-11.074h3.34v-3.262h2.48v10.411h-2.48v-5.118h-3.34v-2.031Z"/><defs><clipPath id="a"><path fill="#fff" d="M48 40h78v78H48z"/></clipPath></defs></svg>