<svg xmlns="http://www.w3.org/2000/svg" width="121" height="120" fill="none"><g clip-path="url(#a)"><rect width="120" height="120" fill="#F6F8FA" rx="60"/><path fill="#CACDD3" fill-rule="evenodd" d="M-43.347 60.092c3.017-1.22 4.987-4.34 4.785-7.586a36.81 36.81 0 0 1-.071-2.285C-38.633 30.217-22.417 14-2.413 14a36.055 36.055 0 0 1 20.946 6.666c2.606 1.85 6.213 1.85 8.819 0A36.056 36.056 0 0 1 48.297 14c20.004 0 36.22 16.217 36.22 36.22 0 .963-.037 1.917-.11 2.86-.248 3.17 1.582 6.249 4.48 7.552 12.608 5.667 21.388 18.335 21.388 33.054 0 14.719-8.78 27.387-21.388 33.054-2.898 1.303-4.728 4.382-4.48 7.551.073.943.11 1.897.11 2.86 0 20.004-16.216 36.221-36.22 36.221a36.058 36.058 0 0 1-20.945-6.667c-2.606-1.85-6.213-1.85-8.82 0a36.058 36.058 0 0 1-20.944 6.667c-20.005 0-36.221-16.217-36.221-36.221 0-.768.024-1.53.07-2.285.203-3.247-1.767-6.367-4.784-7.586C-56.629 121.911-66 108.893-66 93.686s9.371-28.225 22.653-33.594Z" clip-rule="evenodd"/><path fill="#000" d="M50.087 59.652a5.87 5.87 0 1 1-11.74 0 5.87 5.87 0 0 1 11.74 0ZM70.28 59.652a5.87 5.87 0 1 1-11.739 0 5.87 5.87 0 0 1 11.74 0Z"/><path fill="#fff" d="M46.7 71.678c3.505-1.683 4.382-2.243 10.078-2.243 5.697 0 7.414.301 11.832 2.243 4.056 1.782 8.324 7.851 7.448 9.534-.876 1.682-7.06 2.1-12.707 0-2.793-1.04-6.573-4.487-6.573-4.487s-3.517 3.367-6.134 4.487c-5.379 2.3-11.832 2.804-12.27 0-.44-2.805 4.82-7.852 8.326-9.534Z"/></g><rect width="33" height="33" x="85.5" y="82.5" fill="#9EA4A9" rx="16.5"/><rect width="33" height="33" x="85.5" y="82.5" stroke="#fff" stroke-width="5" rx="16.5"/><path stroke="#fff" stroke-linecap="round" stroke-width="1.5" d="M102 106v-7m0 0v-7m0 7h7m-7 0h-7"/><defs><clipPath id="a"><rect width="120" height="120" fill="#fff" rx="60"/></clipPath></defs></svg>