<svg xmlns="http://www.w3.org/2000/svg" width="49" height="17" fill="none"><path fill="#000" d="M13.668 16.564h-1.88V8.531h-1.759v7.225H8.201V.973h1.828v5.959h1.758V.674h1.881v15.89ZM.713 2.502h1.969v8.385a26.208 26.208 0 0 0 4.535-.475l.193 1.705a32.475 32.475 0 0 1-5.642.492H.713V2.502Zm31.73 7.611H30.49V6.23h-2.707v-1.6h2.707V.674h1.951v9.44Zm-13.36-1.582c.826-.281 1.532-.688 2.118-1.221a5.344 5.344 0 0 0 1.336-1.811 5.086 5.086 0 0 0 .448-2.083v-.123H19.68V1.711h8.579v1.582H24.97v.105c0 .657.144 1.295.431 1.916a5.032 5.032 0 0 0 1.274 1.662c.563.486 1.243.864 2.04 1.133l-.985 1.547A6.297 6.297 0 0 1 25.5 8.364a6.44 6.44 0 0 1-1.486-2.012 6.683 6.683 0 0 1-1.529 2.267 6.456 6.456 0 0 1-2.382 1.46l-1.02-1.548Zm2.584 5.01a2.22 2.22 0 0 1 .641-1.617c.434-.457 1.055-.806 1.864-1.046.814-.24 1.778-.36 2.891-.36 1.12 0 2.086.12 2.9.36.815.24 1.44.586 1.873 1.037.44.451.659.993.659 1.626 0 .633-.22 1.175-.66 1.626-.433.451-1.057.797-1.871 1.037-.815.24-1.782.36-2.9.36-1.114 0-2.078-.12-2.892-.36-.809-.24-1.43-.589-1.864-1.046a2.22 2.22 0 0 1-.641-1.617Zm1.933 0c-.006.486.287.861.88 1.125.597.258 1.44.387 2.53.387 1.137 0 2.01-.13 2.62-.387.609-.258.914-.633.914-1.125s-.302-.87-.906-1.134c-.597-.263-1.456-.395-2.575-.395-1.107 0-1.963.132-2.566.395-.604.264-.902.642-.897 1.134Zm25.252 1.107h-14.52v-1.6h6.258V9.956h-4.658V1.73h1.95V4.33h7.366V1.73H47.2v8.226h-4.675v3.094h6.328v1.6Zm-3.604-6.275V5.895h-7.365v2.478h7.365Z"/></svg>
