<svg xmlns="http://www.w3.org/2000/svg" width="60" height="60" fill="none"><g clip-path="url(#a)"><rect width="60" height="60" fill="#F6F8FA" rx="30"/><path fill="#CACDD3" fill-rule="evenodd" d="M-21.673 30.046a3.88 3.88 0 0 0 2.392-3.793 18.326 18.326 0 0 1-.036-1.143C-19.317 15.108-11.208 7-1.207 7 2.697 7 6.31 8.234 9.267 10.333a3.85 3.85 0 0 0 4.41 0A18.028 18.028 0 0 1 24.148 7c10.003 0 18.11 8.108 18.11 18.11 0 .482-.018.959-.055 1.43a3.856 3.856 0 0 0 2.24 3.776c6.305 2.833 10.694 9.167 10.694 16.527 0 7.36-4.39 13.693-10.693 16.527a3.856 3.856 0 0 0-2.24 3.775c.036.472.055.95.055 1.43 0 10.002-8.108 18.11-18.11 18.11a18.028 18.028 0 0 1-10.473-3.332 3.85 3.85 0 0 0-4.41 0 18.028 18.028 0 0 1-10.472 3.333c-10.002 0-18.11-8.109-18.11-18.11 0-.384.011-.765.035-1.143a3.88 3.88 0 0 0-2.392-3.793C-28.314 60.955-33 54.446-33 46.843c0-7.604 4.686-14.113 11.327-16.797Z" clip-rule="evenodd"/><path fill="#000" d="M25.043 29.826a2.935 2.935 0 1 1-5.87 0 2.935 2.935 0 0 1 5.87 0ZM35.14 29.826a2.935 2.935 0 1 1-5.87 0 2.935 2.935 0 0 1 5.87 0Z"/><path fill="#fff" d="M23.35 35.839c1.753-.841 2.19-1.122 5.04-1.122 2.848 0 3.706.151 5.915 1.122 2.028.891 4.162 3.926 3.724 4.767-.438.841-3.53 1.05-6.353 0-1.397-.52-3.287-2.244-3.287-2.244s-1.759 1.684-3.067 2.244c-2.69 1.15-5.916 1.402-6.135 0-.22-1.402 2.41-3.926 4.163-4.767Z"/></g><rect width="59" height="59" x=".5" y=".5" stroke="#EAECED" rx="29.5"/><defs><clipPath id="a"><rect width="60" height="60" fill="#fff" rx="30"/></clipPath></defs></svg>