<svg xmlns="http://www.w3.org/2000/svg" width="24" height="25" fill="none"><path fill="#000" d="M19.5 11.425 18.1 12.8a.979.979 0 0 1-.687.288.93.93 0 0 1-.713-.288.948.948 0 0 1-.275-.7c0-.283.092-.517.275-.7l1.375-1.4L16.7 8.625a.932.932 0 0 1-.275-.687c0-.275.092-.512.275-.713.2-.2.438-.3.713-.3.275 0 .513.1.712.3L19.5 8.6l1.375-1.4c.183-.2.412-.3.687-.3.275 0 .512.1.713.3.2.2.3.438.3.713 0 .275-.1.513-.3.712L20.9 10l1.4 1.4c.2.2.296.433.287.7a1.01 1.01 0 0 1-.312.7c-.2.183-.433.28-.7.288a.913.913 0 0 1-.7-.288L19.5 11.425ZM9 12.5c-1.1 0-2.042-.392-2.825-1.175C5.392 10.542 5 9.6 5 8.5s.392-2.042 1.175-2.825C6.958 4.892 7.9 4.5 9 4.5s2.042.392 2.825 1.175C12.608 6.458 13 7.4 13 8.5s-.392 2.042-1.175 2.825C11.042 12.108 10.1 12.5 9 12.5Zm-8 6v-.8c0-.567.146-1.087.438-1.562A2.93 2.93 0 0 1 2.6 15.05a14.824 14.824 0 0 1 3.15-1.162 13.813 13.813 0 0 1 6.5 0c1.067.26 2.117.647 3.15 1.162.483.25.871.613 1.163 1.088.292.475.438.996.437 1.562v.8c0 .55-.196 1.021-.587 1.413A1.92 1.92 0 0 1 15 20.5H3c-.55 0-1.02-.196-1.412-.587A1.93 1.93 0 0 1 1 18.5Zm2 0h12v-.8a.966.966 0 0 0-.5-.85c-.9-.45-1.808-.787-2.725-1.012A11.652 11.652 0 0 0 9 15.5c-.933 0-1.858.112-2.775.338-.917.226-1.825.563-2.725 1.012a.977.977 0 0 0-.363.35.93.93 0 0 0-.137.5v.8Zm6-8c.55 0 1.021-.196 1.413-.587A1.92 1.92 0 0 0 11 8.5c0-.55-.196-1.021-.587-1.412A1.933 1.933 0 0 0 9 6.5a1.909 1.909 0 0 0-1.412.588c-.39.393-.586.864-.588 1.412a1.918 1.918 0 0 0 .588 1.413c.394.394.865.59 1.412.587Z"/></svg>