<svg xmlns="http://www.w3.org/2000/svg" width="116" height="116" version="1.0" viewBox="0 0 87 87"><defs><clipPath id="a"><path d="M31 26.102h18V43H31Zm0 0"/></clipPath><clipPath id="b"><path d="M26.102 47H42v13.602H26.102Zm0 0"/></clipPath><clipPath id="c"><path d="M54 54h6.602v6.602H54Zm0 0"/></clipPath></defs><path fill="#fff" d="M-8.7-8.7H95.7V95.7H-8.7z"/><path fill="#f6f8fa" d="M-8.7-8.7H95.7V95.7H-8.7z"/><g clip-path="url(#a)"><path fill="none" stroke="#cacdd3" stroke-linecap="round" stroke-linejoin="round" stroke-width="2.5875000000000004" d="M39.898 41.625a6.9 6.9 0 1 0 .003-13.802 6.9 6.9 0 0 0-.003 13.802Zm0 0"/></g><g clip-path="url(#b)"><path fill="none" stroke="#cacdd3" stroke-linecap="round" stroke-linejoin="round" stroke-width="2.5875000000000004" d="M40.418 48.523h-5.691c-1.832 0-3.586.73-4.88 2.024a6.885 6.885 0 0 0-2.023 4.879v3.449"/></g><path fill="none" stroke="#cacdd3" stroke-linecap="round" stroke-linejoin="round" stroke-width="2.5875000000000004" d="M51.977 57.148a5.174 5.174 0 1 0-.004-10.348 5.174 5.174 0 0 0 .004 10.348Zm0 0"/><g clip-path="url(#c)"><path fill="none" stroke="#cacdd3" stroke-linecap="round" stroke-linejoin="round" stroke-width="2.5875000000000004" d="m58.875 58.875-3.277-3.277"/></g></svg>